<svg aria-hidden="true" style="position: absolute; width: 0; height: 0; overflow: hidden;" version="1.1" xmlns="http://www.w3.org/2000/svg" xmlns:xlink="http://www.w3.org/1999/xlink">
<defs>
<symbol id="icon-close-2" viewBox="0 0 32 32">
<path d="M31.439 3.166l-3.166-3.166-12.553 12.553-12.553-12.553-3.166 3.166 12.553 12.553-12.553 12.553 3.166 3.166 12.553-12.553 12.553 12.553 3.166-3.166-12.553-12.553 12.553-12.553z"></path>
</symbol>
<symbol id="icon-menu" viewBox="0 0 48 32">
<path d="M0 5.333v-5.333h48v5.333h-48zM0 18.667h48v-5.333h-48v5.333zM0 32h48v-5.333h-48v5.333z"></path>
</symbol>
<symbol id="icon-logo-4" viewBox="0 0 288 32">
<path fill="#2196f3" style="fill: var(--color1, #2196f3)" d="M2.646 2.737h-0.001c-0.483 0-0.874 0.381-0.874 0.852v0.001c0 0.47 0.391 0.852 0.874 0.852h0.001c0.483 0 0.874-0.381 0.874-0.852v-0.001c0-0.47-0.391-0.851-0.874-0.851zM9.096 2.465c-0.002-0.653-0.268-1.279-0.742-1.741s-1.116-0.722-1.786-0.724c-0.67 0.001-1.313 0.261-1.788 0.723s-0.741 1.088-0.742 1.742v3.602s5.058-0.549 5.059-3.602v-0zM0 7.25c0.002 0.476 0.2 0.904 0.516 1.211l0 0c0.321 0.311 0.76 0.504 1.243 0.504h0c0.483-0 0.922-0.192 1.243-0.504l-0 0c0.317-0.307 0.514-0.736 0.517-1.211v-2.507s-3.52 0.383-3.52 2.506zM1.76 7.699c-0 0-0.001 0-0.001 0-0.095 0-0.183-0.028-0.257-0.077l0.002 0.001c-0.075-0.049-0.133-0.118-0.169-0.199l-0.001-0.003c-0.022-0.051-0.035-0.11-0.035-0.172 0-0.031 0.003-0.061 0.009-0.090l-0 0.003c0.018-0.087 0.062-0.167 0.126-0.23 0.063-0.061 0.143-0.105 0.233-0.122l0.003-0c0.089-0.018 0.182-0.009 0.266 0.026s0.156 0.092 0.207 0.165c0.049 0.070 0.078 0.157 0.078 0.25 0 0.062-0.013 0.121-0.036 0.175l0.001-0.003c-0.023 0.055-0.057 0.105-0.1 0.146s-0.094 0.075-0.15 0.098c-0.052 0.022-0.113 0.034-0.177 0.034-0 0-0 0-0 0v0-0.002zM5.353 7.42h-0.36v0.372h-0.188v-0.91h0.593v0.152h-0.405v0.235h0.36v0.151zM6.254 7.357c0 0.090-0.016 0.168-0.048 0.236s-0.077 0.119-0.136 0.156c-0.056 0.035-0.123 0.055-0.196 0.055-0.002 0-0.005-0-0.007-0h0c-0.075 0-0.143-0.018-0.202-0.054-0.060-0.037-0.107-0.090-0.137-0.153l-0.001-0.002c-0.031-0.066-0.049-0.143-0.049-0.225 0-0.003 0-0.006 0-0.008v0-0.045c0-0.090 0.016-0.169 0.048-0.236s0.078-0.121 0.137-0.157c0.059-0.037 0.127-0.055 0.203-0.055s0.143 0.018 0.202 0.055c0.059 0.036 0.105 0.089 0.137 0.157s0.049 0.147 0.049 0.236v0.041zM6.064 7.316c0-0.095-0.017-0.168-0.051-0.218-0.030-0.045-0.081-0.074-0.139-0.074-0.003 0-0.005 0-0.008 0h0c-0.002-0-0.004-0-0.007-0-0.058 0-0.108 0.029-0.138 0.073l-0 0.001c-0.034 0.049-0.052 0.12-0.052 0.215v0.044c0 0.093 0.017 0.165 0.051 0.216s0.083 0.077 0.148 0.077c0.002 0 0.005 0 0.007 0 0.057 0 0.108-0.029 0.137-0.073l0-0.001c0.034-0.050 0.051-0.122 0.051-0.216v-0.044zM6.862 7.553c0-0.002 0-0.003 0-0.005 0-0.031-0.015-0.058-0.037-0.076l-0-0c-0.025-0.019-0.070-0.039-0.135-0.060-0.060-0.019-0.111-0.040-0.16-0.065l0.005 0.003c-0.103-0.056-0.155-0.131-0.155-0.226 0-0.049 0.014-0.093 0.041-0.131s0.068-0.069 0.119-0.091c0.052-0.022 0.11-0.032 0.175-0.032s0.123 0.012 0.174 0.036c0.051 0.023 0.090 0.057 0.118 0.099s0.043 0.092 0.043 0.146h-0.188c0-0.042-0.013-0.074-0.039-0.097s-0.063-0.035-0.111-0.035c-0.046 0-0.082 0.010-0.107 0.029-0.023 0.017-0.038 0.044-0.038 0.074 0 0.001 0 0.002 0 0.002v-0c0 0.029 0.015 0.054 0.044 0.074s0.074 0.039 0.132 0.056c0.107 0.032 0.184 0.072 0.233 0.119s0.073 0.107 0.073 0.177c0 0.079-0.030 0.141-0.089 0.186s-0.14 0.067-0.241 0.067c-0.070 0-0.134-0.013-0.191-0.038-0.054-0.023-0.099-0.059-0.131-0.105l-0.001-0.001c-0.028-0.042-0.045-0.094-0.045-0.15 0-0.002 0-0.004 0-0.006v0h0.188c0 0.1 0.060 0.151 0.18 0.151 0.045 0 0.079-0.009 0.105-0.027 0.023-0.016 0.037-0.043 0.037-0.073 0-0.001-0-0.003-0-0.004v0zM7.862 7.034h-0.279v0.758h-0.188v-0.758h-0.275v-0.152h0.741v0.152zM8.517 7.398h-0.36v0.244h0.423v0.151h-0.61v-0.91h0.609v0.152h-0.421v0.217h0.36v0.147zM9.027 7.459h-0.149v0.333h-0.188v-0.91h0.338c0.107 0 0.19 0.024 0.249 0.072s0.087 0.116 0.087 0.203c0 0.062-0.014 0.114-0.041 0.156-0.030 0.044-0.072 0.078-0.12 0.098l-0.002 0.001 0.197 0.372v0.009h-0.201l-0.171-0.333zM8.877 7.307h0.151c0.047 0 0.083-0.012 0.109-0.036 0.024-0.024 0.039-0.056 0.039-0.093 0-0.002-0-0.005-0-0.007v0c0-0.043-0.012-0.077-0.037-0.101s-0.061-0.037-0.112-0.037h-0.151v0.273zM10.014 7.471v0.321h-0.188v-0.91h0.355c0.068 0 0.128 0.012 0.18 0.038s0.092 0.061 0.12 0.107c0.028 0.046 0.042 0.098 0.042 0.157 0 0.089-0.030 0.16-0.092 0.211s-0.145 0.077-0.253 0.077h-0.164zM10.014 7.319h0.167c0.050 0 0.087-0.012 0.113-0.035s0.039-0.057 0.039-0.1c0-0.002 0-0.004 0-0.007 0-0.039-0.015-0.075-0.040-0.102l0 0c-0.026-0.028-0.063-0.042-0.109-0.043h-0.172v0.286zM11.2 7.398h-0.36v0.244h0.422v0.151h-0.61v-0.91h0.609v0.152h-0.421v0.217h0.36v0.147zM12.070 7.034h-0.279v0.758h-0.188v-0.758h-0.275v-0.152h0.741v0.152zM12.725 7.398h-0.36v0.244h0.422v0.151h-0.61v-0.91h0.609v0.152h-0.421v0.217h0.36v0.147zM13.234 7.459h-0.149v0.333h-0.188v-0.91h0.338c0.108 0 0.191 0.024 0.249 0.072s0.087 0.116 0.087 0.203c0 0.062-0.013 0.114-0.041 0.156-0.030 0.044-0.072 0.078-0.12 0.098l-0.002 0.001 0.197 0.372v0.009h-0.201l-0.171-0.333zM13.085 7.307h0.151c0.047 0 0.083-0.012 0.109-0.036 0.024-0.024 0.039-0.056 0.039-0.092 0-0.002-0-0.005-0-0.007v0c0-0.043-0.012-0.077-0.037-0.101s-0.061-0.037-0.112-0.037h-0.151v0.273zM14.187 7.553c0-0.002 0-0.003 0-0.005 0-0.031-0.015-0.058-0.037-0.076l-0-0c-0.025-0.019-0.070-0.039-0.135-0.060-0.060-0.019-0.111-0.040-0.16-0.065l0.005 0.003c-0.103-0.056-0.155-0.131-0.155-0.226 0-0.049 0.014-0.093 0.041-0.131s0.068-0.069 0.119-0.091c0.052-0.022 0.11-0.032 0.175-0.032s0.123 0.012 0.174 0.036c0.051 0.023 0.090 0.057 0.118 0.099s0.042 0.092 0.042 0.146h-0.188c0-0.042-0.013-0.074-0.039-0.097s-0.063-0.035-0.111-0.035c-0.046 0-0.082 0.010-0.107 0.029-0.023 0.017-0.038 0.044-0.038 0.074 0 0.001 0 0.002 0 0.002v-0c0 0.029 0.015 0.054 0.044 0.074s0.074 0.039 0.132 0.056c0.107 0.032 0.185 0.072 0.233 0.119s0.073 0.107 0.073 0.177c0 0.079-0.030 0.141-0.089 0.186s-0.14 0.067-0.241 0.067c-0.070 0-0.134-0.013-0.191-0.038-0.054-0.023-0.099-0.059-0.131-0.105l-0.001-0.001c-0.028-0.042-0.045-0.094-0.045-0.15 0-0.002 0-0.004 0-0.006v0h0.188c0 0.1 0.060 0.151 0.18 0.151 0.045 0 0.079-0.009 0.105-0.027 0.023-0.016 0.037-0.043 0.037-0.073 0-0.001-0-0.003-0-0.004v0z"></path>
</symbol>
<symbol id="icon-close" viewBox="0 0 32 32">
<path d="M32 3.223l-3.223-3.223-12.777 12.777-12.777-12.777-3.223 3.223 12.777 12.777-12.777 12.777 3.223 3.223 12.777-12.777 12.777 12.777 3.223-3.223-12.777-12.777 12.777-12.777z"></path>
</symbol>
<symbol id="icon-diagram" viewBox="0 0 32 32">
<path fill="#2196f3" style="fill: var(--color1, #2196f3)" d="M14.926 14.965h1.066v4.798h-1.066v-4.797z"></path>
<path fill="#2196f3" style="fill: var(--color1, #2196f3)" d="M19.19 17.097h1.066v2.665h-1.066v-2.665z"></path>
<path fill="#2196f3" style="fill: var(--color1, #2196f3)" d="M10.661 18.696h1.066v1.066h-1.066v-1.066z"></path>
<path fill="#2196f3" style="fill: var(--color1, #2196f3)" d="M7.463 18.163h1.066v1.599h-1.066v-1.599z"></path>
<path fill="#212121" style="fill: var(--color2, #212121)" d="M1.599 28.291h25.587c0.883 0 1.599-0.716 1.599-1.599v-2.132c0-0.883-0.716-1.599-1.599-1.599h-0.533v-13.293l3.028-2.868c0.703 0.346 1.553 0.136 2.013-0.499s0.396-1.508-0.152-2.068-1.42-0.644-2.065-0.198c-0.644 0.446-0.873 1.292-0.542 2.002l-2.281 2.163v-1.23c0-0.883-0.716-1.599-1.599-1.599h-21.322c-0.883 0-1.599 0.716-1.599 1.599v15.992h-0.533c-0.883 0-1.599 0.716-1.599 1.599v2.132c0 0.883 0.716 1.599 1.599 1.599zM30.384 4.837c0.294 0 0.533 0.239 0.533 0.533s-0.239 0.533-0.533 0.533c-0.294 0-0.533-0.239-0.533-0.533s0.239-0.533 0.533-0.533zM3.198 6.969c0-0.294 0.239-0.533 0.533-0.533h21.322c0.294 0 0.533 0.239 0.533 0.533v2.239l-1.066 1.013v-2.186c0-0.294-0.239-0.533-0.533-0.533h-19.19c-0.294 0-0.533 0.239-0.533 0.533v13.326c0 0.294 0.239 0.533 0.533 0.533h19.19c0.294 0 0.533-0.239 0.533-0.533v-9.674l1.066-1.010v12.284h-22.388v-15.992zM7.996 13.899c-0.721-0.002-1.354 0.478-1.546 1.174s0.105 1.433 0.725 1.801c0.62 0.368 1.41 0.276 1.928-0.226l1.853 0.93c0.215 0.108 0.476 0.057 0.636-0.123l3.939-4.431 3.872 2.901c0.208 0.156 0.498 0.139 0.686-0.039l3.365-3.188v8.131h-18.124v-12.26h18.124v2.66l-3.771 3.572-3.904-2.927c-0.222-0.166-0.534-0.135-0.718 0.072l-3.993 4.493-1.493-0.746c0.011-0.064 0.018-0.129 0.020-0.193 0-0.883-0.716-1.599-1.599-1.599zM8.529 15.498c0 0.294-0.239 0.533-0.533 0.533s-0.533-0.239-0.533-0.533c0-0.294 0.239-0.533 0.533-0.533s0.533 0.239 0.533 0.533zM11.727 24.027h5.331v0.533c0 0.294-0.239 0.533-0.533 0.533h-4.264c-0.294 0-0.533-0.239-0.533-0.533v-0.533zM1.066 24.56c0-0.294 0.239-0.533 0.533-0.533h9.062v0.533c0 0.883 0.716 1.599 1.599 1.599h4.264c0.883 0 1.599-0.716 1.599-1.599v-0.533h9.062c0.294 0 0.533 0.239 0.533 0.533v2.132c0 0.294-0.239 0.533-0.533 0.533h-25.587c-0.294 0-0.533-0.239-0.533-0.533v-2.132z"></path>
</symbol>
<symbol id="icon-clock" viewBox="0 0 32 32">
<path fill="#212121" style="fill: var(--color2, #212121)" d="M31.297 15.301c-0.002-8.452-6.855-15.303-15.308-15.301s-15.303 6.855-15.301 15.308c0.001 6.658 4.307 12.551 10.649 14.576 0.061 0.019 0.124 0.029 0.187 0.029 0.121-0 0.239-0.032 0.342-0.094 0.135-0.080 0.236-0.207 0.283-0.356l3.865-12.25c1.057-0.005 1.909-0.866 1.903-1.923s-0.866-1.909-1.923-1.903c-0.284 0.001-0.565 0.067-0.82 0.191l-5.106-5.107c-0.253-0.245-0.657-0.238-0.902 0.016-0.239 0.247-0.239 0.639 0 0.886l5.103 5.109c-0.392 0.799-0.168 1.764 0.536 2.309l-3.683 11.673c-7.278-2.681-11.004-10.754-8.323-18.032s10.754-11.004 18.032-8.323 11.004 10.754 8.323 18.032c-1.31 3.556-4.001 6.431-7.462 7.973l-0.398-1.874c-0.073-0.344-0.411-0.565-0.756-0.492-0.109 0.023-0.209 0.074-0.292 0.148l-3.837 3.426c-0.263 0.234-0.287 0.637-0.052 0.9 0.076 0.085 0.174 0.149 0.283 0.184l4.899 1.563c0.335 0.108 0.694-0.077 0.802-0.412 0.034-0.106 0.040-0.219 0.017-0.328l-0.391-1.839c5.664-2.388 9.342-7.942 9.329-14.089zM15.992 14.664c0.352 0 0.638 0.286 0.638 0.638s-0.286 0.638-0.638 0.638c-0.352 0-0.638-0.285-0.638-0.638s0.285-0.638 0.638-0.638zM18.093 29.528l2.184-1.948 0.603 2.84-2.787-0.892z"></path>
<path fill="#2196f3" style="fill: var(--color1, #2196f3)" d="M15.354 3.185v1.275c0 0.352 0.285 0.638 0.638 0.638s0.638-0.285 0.638-0.638v-1.275c0-0.352-0.286-0.638-0.638-0.638s-0.638 0.286-0.638 0.638z"></path>
<path fill="#2196f3" style="fill: var(--color1, #2196f3)" d="M3.876 14.664c-0.352 0-0.638 0.286-0.638 0.638s0.285 0.638 0.638 0.638h1.275c0.352 0 0.638-0.285 0.638-0.638s-0.285-0.638-0.638-0.638h-1.275z"></path>
<path fill="#2196f3" style="fill: var(--color1, #2196f3)" d="M28.108 15.939c0.352 0 0.638-0.285 0.638-0.638s-0.285-0.638-0.638-0.638h-1.275c-0.352 0-0.638 0.286-0.638 0.638s0.286 0.638 0.638 0.638h1.275z"></path>
</symbol>
<symbol id="icon-antenna" viewBox="0 0 32 32">
<path fill="#212121" style="fill: var(--color2, #212121)" d="M30.773 22.098l-8.443-8.505 0.937-4.615c0.242 0.094 0.499 0.144 0.758 0.146h0.006c1.192 0.014 2.17-0.941 2.184-2.133s-0.941-2.17-2.133-2.184c-1.192-0.014-2.17 0.941-2.184 2.133-0.003 0.255 0.039 0.509 0.125 0.749l-4.96 0.605-8.091-8.133c-0.099-0.101-0.235-0.159-0.377-0.16-0.14 0.001-0.274 0.056-0.373 0.155l-1.513 1.504c-0.208 0.208-0.208 0.546 0 0.754l0.814 0.826c-3.153 5.798-2.129 12.978 2.519 17.663 0.043 0.041 0.092 0.074 0.146 0.098-0.034 0.18-0.051 0.364-0.052 0.547v6.187h-6.4c-1.472 0.002-2.665 1.195-2.667 2.667v1.067c0 0.295 0.239 0.533 0.533 0.533h24.533c0.295 0 0.533-0.239 0.533-0.533v-1.067c-0.002-1.472-1.195-2.665-2.667-2.667h-6.4v-2.742c1.003 0.21 2.024 0.317 3.049 0.32 2.458-0.003 4.877-0.615 7.040-1.783l0.818 0.823c0.099 0.101 0.235 0.159 0.377 0.16 0.14-0.001 0.274-0.056 0.373-0.155l1.513-1.504c0.208-0.208 0.208-0.546 0-0.754zM23.28 6.233c0.418-0.415 1.093-0.414 1.508 0.004s0.414 1.093-0.004 1.508c-0.2 0.199-0.47 0.31-0.752 0.31h-0.003c-0.589-0.003-1.064-0.483-1.061-1.072 0.002-0.282 0.115-0.552 0.314-0.751h-0.002zM22.024 9.738l-0.598 2.946-1.175-1.182 1.774-1.763zM21.419 8.836l-1.92 1.909-1.485-1.493 3.405-0.415zM24.004 28.8c0.884 0 1.6 0.716 1.6 1.6v0.533h-23.467v-0.533c0-0.884 0.716-1.6 1.6-1.6h20.267zM16.537 26.667v1.067h-5.333v-1.067h5.333zM11.204 25.6v-4.053c0-1.294 1.196-2.347 2.667-2.347s2.667 1.053 2.667 2.347v4.053h-5.333zM17.604 23.904v-2.357c0-1.882-1.675-3.413-3.733-3.413-1.331-0.020-2.576 0.657-3.281 1.786-4.058-4.274-4.971-10.645-2.279-15.887l18.602 18.708c-2.872 1.461-6.165 1.873-9.309 1.163zM28.893 23.22l-21.057-21.181 0.755-0.752 7.935 7.98c0.004 0 0.006 0.007 0.010 0.010l13.115 13.191-0.757 0.752z"></path>
<path fill="#2196f3" style="fill: var(--color1, #2196f3)" d="M13.876 20.267h-0.005c-0.884-0.001-1.601 0.714-1.602 1.598s0.714 1.601 1.598 1.602h0.005c0.884 0.001 1.601-0.714 1.602-1.598s-0.714-1.601-1.598-1.602zM14.249 22.245c-0.1 0.1-0.236 0.156-0.378 0.155-0.295-0.002-0.532-0.242-0.531-0.536 0.001-0.141 0.057-0.276 0.157-0.375s0.233-0.154 0.373-0.155c0.295 0.002 0.532 0.241 0.53 0.536-0.001 0.141-0.057 0.276-0.157 0.375h0.005z"></path>
</symbol>
<symbol id="icon-icon-check" viewBox="0 0 34 32">
<path fill="#2196f3" style="fill: var(--color1, #2196f3)" d="M4.267 0h25.6c2.356 0 4.267 1.91 4.267 4.267v23.467c0 2.356-1.91 4.267-4.267 4.267h-25.6c-2.356 0-4.267-1.91-4.267-4.267v-23.467c0-2.356 1.91-4.267 4.267-4.267z"></path>
<path fill="#fff" style="fill: var(--color3, #fff); stroke: var(--color3, #fff)" stroke="#fff" stroke-linejoin="miter" stroke-linecap="butt" stroke-miterlimit="4" stroke-width="0.4267" d="M8.442 16.537l-0.147-0.14-2.205 2.088 7.767 7.41 16.318-15.567-2.19-2.089-14.128 13.465-5.416-5.167z"></path>
</symbol>
<symbol id="icon-person-black" viewBox="0 0 32 32">
<path d="M16 16c2.947 0 5.333-2.387 5.333-5.333s-2.387-5.333-5.333-5.333c-2.947 0-5.333 2.387-5.333 5.333s2.387 5.333 5.333 5.333zM16 18.667c-3.56 0-10.667 1.787-10.667 5.333v1.333c0 0.733 0.6 1.333 1.333 1.333h18.667c0.733 0 1.333-0.6 1.333-1.333v-1.333c0-3.547-7.107-5.333-10.667-5.333z"></path>
</symbol>
<symbol id="icon-envelope-black" viewBox="0 0 43 32">
<path d="M37.333 0h-32c-2.2 0-3.98 1.8-3.98 4l-0.020 24c0 2.2 1.8 4 4 4h32c2.2 0 4-1.8 4-4v-24c0-2.2-1.8-4-4-4zM36.533 8.5l-14.14 8.84c-0.64 0.4-1.48 0.4-2.12 0l-14.14-8.84c-0.5-0.32-0.8-0.86-0.8-1.44 0-1.34 1.46-2.14 2.6-1.44l13.4 8.38 13.4-8.38c1.14-0.7 2.6 0.1 2.6 1.44 0 0.58-0.3 1.12-0.8 1.44z"></path>
</symbol>
<symbol id="icon-trubka" viewBox="0 0 32 32">
<path d="M27.419 20.852l-4.201-0.48c-1.009-0.116-2.002 0.232-2.713 0.943l-3.044 3.044c-4.681-2.382-8.519-6.203-10.901-10.901l3.060-3.060c0.711-0.711 1.059-1.704 0.943-2.713l-0.48-4.168c-0.198-1.671-1.604-2.928-3.292-2.928h-2.862c-1.869 0-3.424 1.555-3.308 3.424 0.877 14.126 12.174 25.407 26.284 26.284 1.869 0.116 3.424-1.439 3.424-3.308v-2.861c0.016-1.671-1.241-3.077-2.911-3.275z"></path>
</symbol>
<symbol id="icon-person" viewBox="0 0 32 32">
<path d="M16 16c4.42 0 8-3.58 8-8s-3.58-8-8-8c-4.42 0-8 3.58-8 8s3.58 8 8 8zM16 20c-5.34 0-16 2.68-16 8v2c0 1.1 0.9 2 2 2h28c1.1 0 2-0.9 2-2v-2c0-5.32-10.66-8-16-8z"></path>
</symbol>
<symbol id="icon-close-black" viewBox="0 0 32 32">
<path d="M26.667 7.303l-1.97-1.97-7.808 7.808-7.808-7.808-1.97 1.97 7.808 7.808-7.808 7.808 1.97 1.97 7.808-7.808 7.808 7.808 1.97-1.97-7.808-7.808 7.808-7.808z"></path>
</symbol>
<symbol id="icon-astronaut" viewBox="0 0 32 32">
<path fill="#2196f3" style="fill: var(--color1, #2196f3)" d="M31.974 4.524c-0.064-0.191-0.227-0.332-0.427-0.362l-0.003-0-1.911-0.278-0.855-1.731c-0.179-0.365-0.777-0.365-0.956 0l-0.855 1.731-1.911 0.278c-0.26 0.039-0.457 0.26-0.457 0.528 0 0.15 0.062 0.285 0.161 0.382l1.383 1.348-0.326 1.903c-0.034 0.2 0.048 0.402 0.212 0.522 0.166 0.12 0.383 0.135 0.562 0.040l1.709-0.899 1.709 0.899c0.072 0.038 0.157 0.061 0.247 0.061 0.295 0 0.534-0.239 0.534-0.534 0-0.031-0.003-0.062-0.008-0.092l0 0.003-0.326-1.903 1.383-1.348c0.099-0.097 0.161-0.233 0.161-0.382 0-0.059-0.009-0.115-0.027-0.168l0.001 0.004zM29.511 5.851c-0.126 0.122-0.183 0.299-0.153 0.472l0.191 1.114-1-0.526c-0.072-0.039-0.158-0.062-0.249-0.062s-0.177 0.023-0.252 0.063l0.003-0.001-1 0.526 0.191-1.114c0.005-0.027 0.008-0.059 0.008-0.091 0-0.149-0.061-0.285-0.16-0.381l-0-0-0.811-0.789 1.119-0.163c0.174-0.025 0.324-0.134 0.402-0.292l0.5-1.013 0.5 1.013c0.078 0.158 0.228 0.267 0.402 0.292l1.119 0.162-0.809 0.79zM26.134 20.522h-1.067v1.067h1.067v-1.067zM26.134 22.656h-1.067v1.066h1.067v-1.066zM27.2 21.589h-1.067v1.067h1.067v-1.067zM25.067 21.589h-1.067v1.067h1.067v-1.067zM22.4 26.389h-1.067v1.067h1.067v-1.067zM22.4 28.523h-1.067v1.067h1.067v-1.067zM23.467 27.456h-1.067v1.067h1.067v-1.067zM21.334 27.456h-1.067v1.067h1.067v-1.067zM16 24.256h-1.066v1.067h1.066v-1.067zM16 26.389h-1.066v1.067h1.066v-1.067zM17.067 25.322h-1.067v1.067h1.067v-1.067zM14.934 25.322h-1.067v1.067h1.067v-1.067zM5.867 6.122h-1.066v1.066h1.066v-1.066zM5.867 8.256h-1.066v1.066h1.066v-1.066zM6.933 7.189h-1.067v1.067h1.066v-1.067zM4.8 7.189h-1.067v1.067h1.067v-1.067z"></path>
<path fill="#212121" style="fill: var(--color2, #212121)" d="M24.715 14.16c-0.28-0.376-0.698-0.636-1.179-0.703l-0.009-0.001c-0.076-0.012-0.164-0.018-0.254-0.018-0.411 0-0.789 0.139-1.090 0.373l0.004-0.003-1.253 0.96-1.898 1.417-1.358-0.541c2.421-1.086 4.113-3.508 4.113-6.32 0-3.823-3.122-6.934-6.961-6.934s-6.961 3.11-6.961 6.934c0 1.386 0.415 2.674 1.12 3.759l-2.768-0.024c-0.009 0-0.016 0.005-0.023 0.005-0.057 0.003-0.11 0.014-0.159 0.033l0.004-0.001c-0.013 0.005-0.026 0.007-0.038 0.013-0.006 0.003-0.013 0.003-0.019 0.006l-3.233 1.596c-0 0-0.001 0-0.001 0.001l-1.893 0.91c-0.024 0.011-0.045 0.023-0.064 0.036l0.001-0.001c-0.482 0.324-0.795 0.867-0.795 1.483 0 0.297 0.073 0.577 0.201 0.823l-0.005-0.010c0.22 0.424 0.592 0.742 1.043 0.885l0.013 0.003c0.161 0.053 0.345 0.083 0.537 0.083 0.308 0 0.598-0.078 0.851-0.216l-0.009 0.005 1.388-0.738 2.264-1.169 1.357-0.008-5.442 5.415c0 0.001-0.001 0.001-0.001 0.001l-1.339 1.333c-0.303 0.299-0.491 0.714-0.491 1.173 0 0.002 0 0.003 0 0.005v-0c0.002 0.919 0.748 1.664 1.667 1.664 0.001 0 0.002 0 0.002 0h-0c0.428 0 0.854-0.162 1.18-0.485l1.314-1.309 1.741-1.3 0.901 0.897-3.102 3.088c-0.303 0.299-0.491 0.715-0.491 1.174 0 0.001 0 0.003 0 0.004v-0c0 0.445 0.174 0.864 0.49 1.179 0.302 0.3 0.717 0.485 1.176 0.485 0.001 0 0.002 0 0.003 0h-0c0.427 0 0.855-0.162 1.18-0.485l4.488-4.472c0.007-0.006 0.016-0.009 0.022-0.016l5.166-5.658 3.471 0.494c0.025 0.004 0.050 0.006 0.075 0.006 0.064 0 0.127-0.016 0.187-0.038 0.017-0.006 0.032-0.015 0.049-0.023 0.019-0.010 0.039-0.015 0.058-0.027l3.213-2.133c0.012-0.008 0.018-0.021 0.029-0.030 0.013-0.010 0.029-0.014 0.041-0.026l1.271-1.191c0.348-0.326 0.564-0.787 0.564-1.3 0-0.4-0.132-0.769-0.355-1.066l0.003 0.005zM2.13 17.77c-0.098 0.054-0.215 0.086-0.34 0.086-0.078 0-0.153-0.013-0.224-0.036l0.005 0.001c-0.294-0.093-0.504-0.364-0.504-0.683 0-0.236 0.114-0.445 0.29-0.575l0.002-0.001 1.314-0.632 0.316 0.924 0.133 0.389-0.992 0.527zM5.627 15.942l-1.548 0.8-0.255-0.746-0.184-0.537 2.027-1.001-0.040 1.484zM20.727 9.322c0 0.918-0.219 1.785-0.599 2.56l-4.181-1.899c-0.044-0.575-0.342-1.072-0.782-1.384l-0.006-0.004 1.464-4.86c2.377 0.756 4.104 2.974 4.104 5.588zM8.938 9.322c0-3.235 2.644-5.867 5.894-5.867 0.253 0 0.5 0.022 0.745 0.053l-1.432 4.753c-0.019 0-0.037-0.006-0.057-0.006-0 0-0.001 0-0.001 0-1.032 0-1.869 0.835-1.872 1.867v0c0.003 1.031 0.84 1.867 1.872 1.867 0 0 0 0 0.001 0h-0c0.695 0 1.295-0.383 1.618-0.944l3.863 1.755c-1.075 1.446-2.795 2.389-4.737 2.389-3.25 0-5.894-2.632-5.894-5.867zM14.895 10.122c0 0.441-0.362 0.8-0.806 0.8-0 0-0.001 0-0.001 0-0.443 0-0.802-0.358-0.804-0.8v-0c0-0.441 0.361-0.8 0.806-0.8s0.806 0.359 0.806 0.8zM2.464 25.146c-0.11 0.109-0.261 0.176-0.428 0.176s-0.317-0.067-0.427-0.175l0 0c-0.109-0.108-0.176-0.257-0.176-0.422s0.067-0.314 0.176-0.422l0-0 0.962-0.959 0.852 0.848-0.959 0.955zM5.678 28.88c-0.11 0.109-0.261 0.176-0.428 0.176s-0.317-0.067-0.427-0.175l0 0c-0.109-0.108-0.176-0.257-0.176-0.422s0.067-0.314 0.176-0.422l0-0 0.963-0.959 0.852 0.848-0.96 0.955zM9.16 25.411l-0.001 0.001-1.765 1.76-0.852-0.848 1.765-1.757c0.040-0.040 0.065-0.088 0.090-0.136 0.007-0.014 0.020-0.026 0.026-0.040 0.016-0.041 0.019-0.085 0.026-0.128 0.003-0.025 0.014-0.048 0.014-0.073 0-0.035-0.013-0.070-0.020-0.105-0.006-0.032-0.006-0.064-0.019-0.096-0.025-0.053-0.055-0.098-0.092-0.138l0 0c-0.010-0.012-0.014-0.027-0.025-0.038h-0.001s0-0.001-0.001-0.002l-1.607-1.6c-0.017-0.017-0.039-0.024-0.058-0.038-0.025-0.021-0.054-0.040-0.084-0.057l-0.003-0.001c-0.026-0.013-0.058-0.023-0.090-0.031l-0.003-0.001c-0.030-0.009-0.065-0.017-0.101-0.020l-0.002-0c-0.007-0-0.015-0.001-0.023-0.001-0.026 0-0.051 0.002-0.075 0.005l0.003-0c-0.036 0.005-0.069 0.009-0.104 0.021-0.036 0.013-0.067 0.028-0.096 0.046l0.002-0.001c-0.020 0.011-0.043 0.015-0.061 0.029l-1.774 1.324-0.901-0.897 2.399-2.386 4.36 4.289-0.928 0.919zM15.979 18.394c-0.016-0.002-0.030 0.004-0.046 0.003-0.008-0-0.017-0.001-0.027-0.001-0.031 0-0.062 0.003-0.092 0.008l0.003-0c-0.070 0.011-0.132 0.035-0.187 0.070l0.002-0.001c-0.031 0.019-0.058 0.039-0.083 0.062l0-0c-0.013 0.011-0.028 0.016-0.040 0.029l-4.698 5.146-4.328-4.256 2.833-2.818c0.096-0.097 0.156-0.23 0.156-0.377 0-0.295-0.239-0.534-0.534-0.534-0.001 0-0.001 0-0.002 0h0l-2.219 0.013 0.028-1.607 3.104 0.027c1.264 1.297 3.027 2.101 4.978 2.101 0.001 0 0.002 0 0.003 0h-0c0.438 0 0.864-0.046 1.28-0.122 0.040 0.032 0.080 0.064 0.129 0.085l2.41 0.96 0.152 0.759 0.178 0.885-3.003-0.427zM20.020 18.572l-0.313-1.558 1.446-1.080 0.946 1.257-2.080 1.381zM23.773 15.741l-0.837 0.785-0.931-1.237 0.831-0.637c0.155-0.119 0.351-0.168 0.543-0.143 0.193 0.027 0.364 0.128 0.48 0.284 0.088 0.117 0.141 0.265 0.141 0.426 0 0.206-0.087 0.391-0.226 0.521l-0 0z"></path>
<path fill="#212121" style="fill: var(--color2, #212121)" d="M13.602 18.544l-2.143-2.134c-0.096-0.096-0.229-0.155-0.376-0.155s-0.28 0.059-0.376 0.155l-2.143 2.133c-0.097 0.097-0.156 0.23-0.156 0.378s0.060 0.281 0.156 0.378l-0-0 2.142 2.134c0.096 0.096 0.229 0.156 0.376 0.156s0.28-0.059 0.376-0.156v0l2.143-2.134c0.097-0.097 0.157-0.23 0.157-0.378s-0.060-0.281-0.157-0.378l-0-0zM11.083 20.303l-1.387-1.381 1.386-1.381 1.387 1.381-1.387 1.381zM17.164 5.071l-0.258 1.036c0.071 0.018 1.738 0.452 1.738 2.149h1.067c0-2.017-1.666-2.965-2.547-3.184zM19.711 9.322h-1.067v1.066h1.067v-1.066z"></path>
</symbol>
<symbol id="icon-envelope" viewBox="0 0 43 32">
<path fill="#757575" style="fill: var(--color4, #757575)" d="M38.667 0h-34.667c-2.205 0-4 1.795-4 4v24c0 2.205 1.795 4 4 4h34.667c2.205 0 4-1.795 4-4v-24c0-2.205-1.795-4-4-4zM38.667 2.667c0.181 0 0.355 0.037 0.512 0.104l-17.845 15.467-17.845-15.467c0.151-0.065 0.327-0.104 0.512-0.104h34.667zM38.667 29.333h-34.667c-0.736 0-1.333-0.597-1.333-1.333v0-22.413l17.792 15.421c0.233 0.203 0.539 0.327 0.875 0.327s0.642-0.124 0.876-0.328l-0.002 0.001 17.792-15.421v22.413c0 0.736-0.597 1.333-1.333 1.333v0z"></path>
</symbol>
<symbol id="icon-Web-Studio-footer" viewBox="0 0 243 32">
<path fill="#2196f3" style="fill: var(--color1, #2196f3)" d="M13.27 0.947h5.283l3.328 9.776 3.328-9.776h5.325l-5.034 13.437 3.744 9.443 8.362-22.963h6.24l-12.022 29.536h-4.826l-5.117-12.397-5.117 12.397h-4.826l-11.939-29.536h6.157l8.403 22.963 3.661-9.443-4.95-13.437zM55.006 30.816c-1.747 0-3.328-0.291-4.742-0.874-1.41-0.602-2.612-1.431-3.618-2.453l-0.001-0.001c-0.973-1.001-1.761-2.189-2.303-3.504l-0.027-0.074c-0.5-1.257-0.791-2.713-0.791-4.237 0-0.017 0-0.034 0-0.051v0.003c0-1.552 0.264-3.008 0.79-4.368 0.535-1.408 1.312-2.614 2.291-3.622l-0.002 0.003c1.001-1.047 2.205-1.89 3.549-2.469l0.070-0.027c1.443-0.61 3.051-0.915 4.826-0.915 1.776 0 3.357 0.304 4.742 0.915 1.414 0.61 2.608 1.429 3.578 2.454 0.967 0.991 1.731 2.183 2.224 3.508l0.023 0.069c0.528 1.36 0.79 2.773 0.79 4.243 0 0.36-0.013 0.707-0.042 1.040 0 0.333-0.027 0.61-0.083 0.832h-16.848c0.083 0.859 0.291 1.622 0.624 2.288 0.641 1.285 1.721 2.271 3.040 2.774l0.039 0.013c0.666 0.25 1.36 0.374 2.080 0.374 1.11 0 2.15-0.264 3.12-0.79 0.998-0.555 1.678-1.275 2.038-2.163l4.784 1.331c-0.803 1.664-2.093 3.037-3.869 4.118-1.747 1.054-3.84 1.581-6.282 1.581zM60.664 17.67c-0.138-1.637-0.749-2.939-1.83-3.91-1.053-0.998-2.342-1.498-3.869-1.498-0.749 0-1.456 0.139-2.122 0.416-0.661 0.262-1.228 0.628-1.708 1.084l0.002-0.002c-0.499 0.472-0.915 1.040-1.248 1.706-0.304 0.666-0.485 1.4-0.541 2.205h11.315zM83.446 30.816c-1.664 0-3.149-0.374-4.451-1.123-1.292-0.743-2.335-1.787-3.057-3.039l-0.021-0.040v3.786h-4.867v-30.368h5.574v12.397c0.776-1.331 1.789-2.357 3.037-3.078 1.275-0.749 2.758-1.123 4.451-1.123 1.414 0 2.704 0.304 3.869 0.915 1.184 0.626 2.18 1.449 2.981 2.437l0.014 0.018c0.849 1.021 1.517 2.227 1.935 3.544l0.021 0.075c0.47 1.387 0.707 2.843 0.707 4.368 0 1.581-0.264 3.051-0.79 4.41-0.505 1.381-1.225 2.569-2.131 3.589l0.010-0.011c-0.899 0.978-1.976 1.776-3.183 2.345l-0.062 0.026c-1.162 0.552-2.525 0.874-3.963 0.874-0.025 0-0.051-0-0.076-0l0.004 0zM81.907 26.074c0.886 0 1.706-0.166 2.454-0.499 0.749-0.36 1.386-0.832 1.914-1.414s0.928-1.262 1.206-2.038c0.304-0.776 0.458-1.608 0.458-2.496s-0.139-1.733-0.416-2.538c-0.28-0.818-0.691-1.523-1.213-2.13l0.007 0.008c-0.488-0.596-1.082-1.085-1.758-1.441l-0.031-0.015c-0.649-0.341-1.419-0.541-2.235-0.541-0.019 0-0.038 0-0.056 0l0.003-0c-1.248 0-2.371 0.416-3.37 1.248-0.959 0.8-1.721 1.802-2.226 2.944l-0.020 0.051v5.2c0.194 0.555 0.47 1.054 0.832 1.498 0.387 0.443 0.818 0.832 1.29 1.165 0.47 0.304 0.984 0.555 1.539 0.749 0.485 0.155 1.042 0.246 1.62 0.25h0.002z"></path>
<path fill="#fff" style="fill: var(--color3, #fff)" d="M128.042 8.602c-0.194-0.194-0.554-0.458-1.082-0.79-0.536-0.351-1.153-0.672-1.8-0.931l-0.072-0.025c-0.666-0.314-1.456-0.598-2.274-0.811l-0.097-0.021c-0.785-0.211-1.686-0.333-2.616-0.333-0.002 0-0.003 0-0.005 0h0c-1.581 0-2.758 0.291-3.536 0.874-0.776 0.582-1.165 1.4-1.165 2.454 0 0.61 0.139 1.123 0.416 1.539 0.306 0.389 0.736 0.736 1.29 1.040 0.555 0.304 1.248 0.582 2.080 0.832 0.861 0.25 1.845 0.512 2.954 0.79 1.616 0.428 2.918 0.854 4.19 1.342l-0.28-0.094c1.194 0.443 2.192 0.998 2.995 1.664 0.832 0.666 1.47 1.47 1.914 2.413 0.445 0.915 0.666 2.053 0.666 3.411 0 1.581-0.304 2.939-0.915 4.077-0.581 1.105-1.397 2.015-2.387 2.688l-0.025 0.016c-0.998 0.693-2.163 1.206-3.494 1.539-1.302 0.304-2.675 0.458-4.118 0.458-2.218 0-4.41-0.333-6.573-0.998-2.22-0.678-4.154-1.642-5.887-2.871l0.063 0.042 2.538-4.95c0.25 0.25 0.694 0.582 1.331 0.998 0.666 0.389 1.443 0.79 2.33 1.206 0.888 0.389 1.872 0.72 2.954 0.998 1.082 0.277 2.192 0.416 3.328 0.416 3.162 0 4.742-1.013 4.742-3.037 0-0.638-0.179-1.179-0.541-1.622-0.36-0.443-0.874-0.832-1.539-1.165-0.677-0.337-1.478-0.649-2.309-0.889l-0.104-0.026c-0.942-0.277-1.997-0.582-3.162-0.915-1.477-0.396-2.709-0.822-3.902-1.322l0.199 0.074c-1.026-0.472-1.885-1.013-2.579-1.622-0.657-0.596-1.19-1.315-1.564-2.122l-0.017-0.041c-0.333-0.832-0.499-1.816-0.499-2.954 0-1.498 0.278-2.829 0.832-3.994 0.551-1.161 1.324-2.134 2.272-2.9l0.016-0.012c0.98-0.76 2.131-1.358 3.379-1.728l0.074-0.019c1.225-0.396 2.633-0.624 4.096-0.624 0.037 0 0.075 0 0.112 0l-0.006-0c2.080 0 3.994 0.333 5.741 0.998 1.747 0.638 3.274 1.4 4.576 2.288l-2.538 4.659zM149.483 29.277c-0.749 0.333-1.664 0.666-2.746 0.998-1.004 0.317-2.159 0.499-3.357 0.499-0.019 0-0.038-0-0.057-0h0.003c-0.014 0-0.030 0-0.046 0-0.768 0-1.512-0.106-2.216-0.305l0.057 0.014c-0.686-0.2-1.283-0.514-1.8-0.923l0.011 0.008c-0.504-0.457-0.912-1.010-1.194-1.633l-0.013-0.031c-0.304-0.693-0.458-1.525-0.458-2.496v-12.522h-2.869v-4.285h2.87v-7.072h5.574v7.072h4.576v4.285h-4.576v10.65c0 0.776 0.195 1.331 0.582 1.664 0.416 0.304 0.915 0.458 1.498 0.458s1.152-0.096 1.706-0.291c0.555-0.194 0.998-0.36 1.331-0.499l1.123 4.41zM160.291 30.816c-2.246 0-3.952-0.72-5.117-2.163-1.165-1.442-1.747-3.578-1.747-6.406v-13.645h5.574v12.438c0 3.355 1.206 5.034 3.619 5.034 1.082 0 2.122-0.32 3.12-0.957 1.026-0.666 1.858-1.664 2.496-2.995v-13.52h5.574v15.392c0 0.582 0.098 0.998 0.291 1.248 0.222 0.25 0.568 0.389 1.040 0.416v4.742c-0.721 0.159-1.548 0.25-2.397 0.25-0.006 0-0.011 0-0.017 0h0.001c-0.998 0-1.816-0.222-2.454-0.666-0.59-0.455-0.991-1.13-1.080-1.901l-0.001-0.013-0.125-1.747c-0.971 1.498-2.219 2.621-3.744 3.37s-3.203 1.123-5.034 1.123zM189.626 30.816c-0.028 0-0.061 0-0.094 0-1.473 0-2.871-0.322-4.128-0.899l0.062 0.025c-1.292-0.592-2.386-1.406-3.278-2.403l-0.008-0.009c-0.899-1.013-1.631-2.199-2.136-3.498l-0.027-0.079c-0.475-1.297-0.749-2.795-0.749-4.357 0-0.033 0-0.066 0-0.1l-0 0.005c0-1.581 0.235-3.051 0.707-4.41 0.5-1.374 1.191-2.56 2.054-3.597l-0.016 0.019c0.837-1 1.861-1.812 3.024-2.389l0.054-0.024c1.117-0.551 2.431-0.874 3.821-0.874 0.031 0 0.063 0 0.094 0.001l-0.005-0c1.608 0 3.051 0.389 4.326 1.165 1.266 0.745 2.292 1.771 3.015 2.998l0.021 0.039v-12.397h5.574v23.962c0 0.582 0.098 0.998 0.291 1.248s0.526 0.389 0.998 0.416v4.742c-0.971 0.194-1.762 0.291-2.371 0.291-0.998 0-1.816-0.25-2.454-0.749-0.605-0.46-1.010-1.154-1.081-1.945l-0.001-0.011-0.125-1.373c-0.778 1.353-1.897 2.433-3.243 3.141l-0.044 0.021c-1.241 0.655-2.713 1.040-4.274 1.040-0.004 0-0.007 0-0.011 0h0.001zM191.082 26.074c0.526 0 1.067-0.083 1.622-0.25 1.124-0.398 2.067-1.072 2.778-1.944l0.009-0.011c0.389-0.443 0.68-0.928 0.874-1.456v-5.2c-0.235-0.639-0.559-1.191-0.964-1.673l0.007 0.009c-0.384-0.52-0.838-0.961-1.354-1.319l-0.019-0.012c-0.466-0.367-1.002-0.675-1.58-0.901l-0.043-0.015c-0.492-0.207-1.063-0.329-1.663-0.333h-0.001c-0.832 0-1.608 0.181-2.33 0.541-0.712 0.377-1.308 0.88-1.78 1.485l-0.009 0.012c-0.491 0.603-0.887 1.307-1.15 2.074l-0.014 0.048c-0.264 0.74-0.416 1.594-0.416 2.483 0 0.005 0 0.009 0 0.014v-0.001c0 0.915 0.152 1.76 0.458 2.538 0.306 0.776 0.722 1.456 1.248 2.038s1.15 1.040 1.872 1.373c0.749 0.333 1.566 0.499 2.454 0.499zM208.659 30.4v-21.798h5.574v21.798h-5.574zM208.659 5.565v-5.533h5.574v5.533h-5.574zM230.578 30.816c-1.774 0-3.37-0.304-4.784-0.915-1.41-0.602-2.612-1.431-3.618-2.453l-0.001-0.001c-0.941-1.018-1.701-2.22-2.22-3.542l-0.027-0.077c-0.5-1.257-0.791-2.714-0.791-4.239 0-0.016 0-0.032 0-0.049v0.003c0-1.525 0.264-2.968 0.79-4.326 0.538-1.387 1.299-2.576 2.251-3.583l-0.005 0.005c1.001-1.047 2.205-1.89 3.549-2.469l0.070-0.027c1.414-0.61 3.010-0.915 4.784-0.915s3.355 0.304 4.742 0.915c1.403 0.598 2.595 1.443 3.572 2.49l0.006 0.006c0.97 0.996 1.746 2.186 2.263 3.506l0.025 0.072c0.526 1.36 0.79 2.8 0.79 4.326 0 0.014 0 0.030 0 0.046 0 1.525-0.29 2.982-0.818 4.319l0.028-0.080c-0.545 1.4-1.306 2.601-2.253 3.627l0.007-0.008c-0.971 1.026-2.163 1.845-3.578 2.454s-3.010 0.915-4.784 0.915zM224.878 19.542c0 0.971 0.139 1.858 0.416 2.662 0.306 0.776 0.707 1.456 1.206 2.038 0.526 0.582 1.138 1.040 1.83 1.373 0.693 0.304 1.442 0.458 2.246 0.458s1.554-0.152 2.246-0.458c0.705-0.341 1.301-0.803 1.783-1.366l0.006-0.007c0.526-0.582 0.93-1.275 1.206-2.080 0.29-0.764 0.458-1.648 0.458-2.571 0-0.032-0-0.065-0.001-0.097l0 0.005c0-0.944-0.152-1.816-0.458-2.621-0.273-0.805-0.685-1.498-1.211-2.086l0.005 0.006c-0.482-0.564-1.079-1.015-1.757-1.319l-0.031-0.013c-0.645-0.315-1.404-0.499-2.205-0.499-0.014 0-0.029 0-0.043 0h0.002c-0.012-0-0.027-0-0.041-0-0.802 0-1.56 0.184-2.236 0.513l0.030-0.013c-0.716 0.349-1.323 0.81-1.826 1.367l-0.005 0.005c-0.5 0.592-0.908 1.281-1.191 2.032l-0.016 0.048c-0.264 0.76-0.416 1.636-0.416 2.548 0 0.026 0 0.051 0 0.077l-0-0.004z"></path>
</symbol>
<symbol id="icon-tel" viewBox="0 0 20 32">
<path fill="#757575" style="fill: var(--color4, #757575)" d="M17 0h-14c-1.654 0-3 1.346-3 3v26c0 1.654 1.346 3 3 3h14c1.654 0 3-1.346 3-3v-26c0-1.654-1.346-3-3-3zM3 2h14c0.552 0 1 0.448 1 1v0 21h-16v-21c0-0.552 0.448-1 1-1v0zM17 30h-14c-0.552 0-1-0.448-1-1v0-3h16v3c0 0.552-0.448 1-1 1v0z"></path>
</symbol>
<symbol id="icon-hero" viewBox="0 0 85 32">
<path d="M0 0h85.333v32h-85.333z"></path>
</symbol>
<symbol id="icon-logo-1" viewBox="0 0 29 32">
<path fill="#afb1b8" style="fill: var(--color5, #afb1b8)" d="M3.84 0l4.677 4.428h13.046v12.351l4.677 4.428v-21.206h-22.4z"></path>
<path fill="#afb1b8" style="fill: var(--color5, #afb1b8)" d="M0 4.241v20.6h21.76v-8.188l-13.105-12.407-8.655-0.005zM17.615 21.828h-14.172v-13.855h1.002v12.917h13.17v0.938zM6.266 28.662l0.524-1.078h0.438l-0.764 1.437v0.838h-0.397v-0.838l-0.764-1.437h0.439l0.524 1.078zM8.513 29.329h-0.881l-0.184 0.53h-0.411l0.859-2.275h0.355l0.861 2.275h-0.413l-0.186-0.53zM7.743 29.010h0.659l-0.33-0.944-0.33 0.944zM10.071 29.244c0-0.105 0.029-0.202 0.086-0.289 0.058-0.089 0.17-0.193 0.339-0.314-0.069-0.083-0.131-0.176-0.182-0.276l-0.004-0.008c-0.031-0.066-0.050-0.144-0.052-0.226v-0c0-0.179 0.054-0.319 0.163-0.422s0.254-0.156 0.437-0.156c0.166 0 0.301 0.049 0.406 0.147 0.106 0.097 0.16 0.218 0.16 0.361 0 0.001 0 0.002 0 0.003 0 0.096-0.027 0.186-0.074 0.262l0.001-0.002c-0.063 0.095-0.142 0.174-0.233 0.236l-0.003 0.002-0.155 0.113 0.44 0.518c0.063-0.125 0.095-0.264 0.095-0.417h0.33c0 0.28-0.065 0.509-0.196 0.689l0.334 0.396h-0.44l-0.128-0.152c-0.154 0.115-0.348 0.183-0.558 0.183-0.008 0-0.017-0-0.025-0l0.001 0c-0.225 0-0.405-0.060-0.54-0.179-0.124-0.11-0.202-0.27-0.202-0.447 0-0.007 0-0.014 0-0.021l-0 0.001zM10.824 29.587c0.128 0 0.248-0.043 0.359-0.128l-0.497-0.586-0.049 0.035c-0.125 0.095-0.188 0.203-0.188 0.325 0 0.105 0.034 0.191 0.102 0.256 0.066 0.061 0.156 0.099 0.254 0.099 0.006 0 0.013-0 0.019-0l-0.001 0zM10.614 28.121c0 0.088 0.054 0.197 0.161 0.33l0.173-0.118 0.049-0.039c0.059-0.052 0.097-0.128 0.097-0.212 0-0.003-0-0.006-0-0.009v0c0-0.001 0-0.001 0-0.002 0-0.059-0.026-0.112-0.067-0.149l-0-0c-0.042-0.040-0.099-0.064-0.162-0.064-0.003 0-0.006 0-0.009 0h0c-0.003-0-0.006-0-0.010-0-0.066 0-0.126 0.029-0.167 0.075l-0 0c-0.041 0.048-0.066 0.111-0.066 0.179 0 0.003 0 0.007 0 0.010v-0zM14.748 29.118c-0.023 0.243-0.113 0.432-0.269 0.568s-0.364 0.204-0.623 0.204c-0.181 0-0.341-0.043-0.48-0.128-0.139-0.089-0.248-0.214-0.317-0.362l-0.002-0.005c-0.074-0.16-0.117-0.347-0.117-0.544 0-0.003 0-0.005 0-0.008v0-0.212c0-0.214 0.038-0.403 0.114-0.567 0.077-0.164 0.186-0.29 0.326-0.378 0.143-0.089 0.307-0.133 0.494-0.133 0.251 0 0.453 0.068 0.606 0.205s0.243 0.329 0.268 0.578h-0.394c-0.019-0.163-0.067-0.281-0.144-0.353-0.076-0.073-0.188-0.109-0.336-0.109-0.172 0-0.304 0.063-0.397 0.189-0.092 0.125-0.138 0.309-0.141 0.552v0.202c0 0.246 0.044 0.433 0.132 0.563s0.218 0.194 0.387 0.194c0.155 0 0.272-0.035 0.35-0.105s0.128-0.186 0.148-0.348h0.394zM16.918 28.78c0 0.223-0.038 0.419-0.115 0.588-0.077 0.168-0.188 0.297-0.332 0.388-0.143 0.090-0.307 0.134-0.494 0.134-0.184 0-0.349-0.045-0.493-0.134-0.146-0.094-0.261-0.225-0.332-0.38l-0.002-0.006c-0.075-0.163-0.119-0.354-0.119-0.555 0-0.008 0-0.015 0-0.023v0.001-0.128c0-0.222 0.038-0.418 0.117-0.588s0.19-0.3 0.333-0.389c0.144-0.091 0.308-0.136 0.493-0.136s0.35 0.045 0.493 0.134c0.143 0.089 0.255 0.217 0.333 0.384s0.118 0.362 0.118 0.584v0.126zM16.522 28.662c0-0.252-0.048-0.445-0.143-0.58-0.085-0.123-0.225-0.202-0.384-0.202-0.007 0-0.015 0-0.022 0.001l0.001-0c-0.005-0-0.011-0-0.016-0-0.159 0-0.299 0.079-0.384 0.2l-0.001 0.002c-0.096 0.133-0.145 0.323-0.147 0.567v0.131c0 0.25 0.049 0.444 0.146 0.58s0.233 0.205 0.406 0.205c0.175 0 0.31-0.067 0.403-0.2 0.095-0.133 0.142-0.328 0.142-0.584v-0.118z"></path>
</symbol>
<symbol id="icon-logo-2" viewBox="0 0 25 32">
<path fill="#afb1b8" style="fill: var(--color5, #afb1b8)" d="M10.447 1.806h0.084c0.156 0 0.324 0.015 0.49 0.030 0.734 0.052 1.463 0.162 2.18 0.329v-1.762c-0.652-0.172-1.42-0.299-2.207-0.357l-0.042-0.002c-0.254-0.020-0.571-0.035-0.889-0.043l-0.021-0h-0.263c-1.523 0.006-3.040 0.201-4.514 0.582-1.68 0.418-3.293 1.075-4.79 1.948v17.475c1.312-0.729 2.832-1.339 4.431-1.75l0.135-0.029c1.123-0.3 2.433-0.51 3.78-0.586l0.052-0.002h0.052c0.217-0.011 0.433-0.017 0.655-0.018v-1.791c-1.78 0.024-3.493 0.264-5.129 0.695l0.147-0.033c-0.603 0.157-1.185 0.326-1.731 0.513l-0.623 0.212v-13.626l0.266-0.128c1.89-0.918 4.096-1.513 6.425-1.649l0.047-0.002c0.008-0.001 0.018-0.001 0.028-0.001s0.019 0 0.029 0.001l-0.001-0c0.248-0.012 0.497-0.018 0.742-0.018h0.28c0.129 0.003 0.258 0.006 0.388 0.014z"></path>
<path fill="#afb1b8" style="fill: var(--color5, #afb1b8)" d="M14.837 3.651c-0.005 0-0.010 0-0.016 0-0.915 0-1.811-0.077-2.684-0.225l0.094 0.013c-0.277-0.047-0.55-0.103-0.814-0.164v17.275c1.12 0.277 2.271 0.412 3.425 0.404 1.607-0.007 3.162-0.218 4.644-0.61l-0.128 0.029c1.817-0.461 3.412-1.129 4.877-1.995l-0.085 0.047v-17.163c-1.311 0.728-2.83 1.338-4.429 1.751l-0.136 0.030c-1.551 0.399-3.146 0.603-4.746 0.609zM21.745 3.95l0.623-0.209v13.63l-0.266 0.129c-0.903 0.442-1.962 0.834-3.065 1.118l-0.119 0.026c-1.331 0.345-2.699 0.521-4.074 0.527-0.411 0-0.818-0.017-1.214-0.052l-0.426-0.038v-14.017l0.497 0.033c0.361 0.023 0.735 0.034 1.141 0.034 1.841-0.007 3.622-0.248 5.32-0.696l-0.147 0.033c0.581-0.154 1.158-0.326 1.731-0.518zM1.684 25.977c-0.167-0.173-0.401-0.281-0.661-0.281-0.011 0-0.023 0-0.034 0.001l0.002-0c-0.004-0-0.009-0-0.014-0-0.139 0-0.272 0.028-0.393 0.078l0.007-0.003c-0.237 0.095-0.42 0.28-0.51 0.512l-0.002 0.006c-0.049 0.123-0.073 0.254-0.071 0.386v2.335c-0.006 0.164 0.026 0.328 0.092 0.479 0.055 0.12 0.135 0.226 0.234 0.313 0.093 0.078 0.202 0.135 0.32 0.166 0.114 0.031 0.231 0.048 0.349 0.048 0.13 0.001 0.258-0.026 0.377-0.081 0.351-0.156 0.591-0.5 0.591-0.901v-0.261h-0.611v0.208c0 0.004 0 0.009 0 0.014 0 0.070-0.013 0.136-0.037 0.198l0.001-0.004c-0.021 0.052-0.051 0.095-0.089 0.132l-0 0c-0.070 0.054-0.159 0.088-0.255 0.089h-0c-0.011 0.001-0.023 0.002-0.036 0.002-0.103 0-0.194-0.050-0.25-0.127l-0.001-0.001c-0.051-0.082-0.082-0.182-0.082-0.289 0-0.008 0-0.016 0.001-0.024l-0 0.001v-2.177c-0.004-0.121 0.022-0.24 0.075-0.349 0.056-0.087 0.153-0.143 0.262-0.143 0.013 0 0.025 0.001 0.038 0.002l-0.001-0c0.003-0 0.007-0 0.012-0 0.107 0 0.201 0.052 0.26 0.131l0.001 0.001c0.063 0.082 0.101 0.187 0.101 0.3 0 0.005-0 0.009-0 0.014v-0.001 0.202h0.604v-0.238c0-0.003 0-0.007 0-0.011 0-0.143-0.027-0.28-0.077-0.405l0.003 0.007c-0.048-0.128-0.117-0.237-0.205-0.329l0 0zM5.31 25.951c-0.186-0.158-0.429-0.255-0.694-0.257h-0c-0.124 0-0.248 0.023-0.364 0.066-0.252 0.090-0.451 0.276-0.557 0.511l-0.002 0.006c-0.062 0.142-0.092 0.297-0.089 0.452v2.239c-0.004 0.158 0.026 0.314 0.089 0.458 0.055 0.121 0.136 0.228 0.237 0.313 0.094 0.086 0.203 0.154 0.322 0.197 0.117 0.043 0.24 0.065 0.364 0.066 0.267-0.001 0.51-0.1 0.695-0.264l-0.001 0.001c0.097-0.087 0.176-0.194 0.23-0.313 0.063-0.144 0.093-0.301 0.089-0.458v-2.239c0-0.006 0-0.014 0-0.021 0-0.156-0.033-0.304-0.092-0.438l0.003 0.007c-0.057-0.128-0.135-0.237-0.23-0.327l-0-0zM5.025 28.969c0.001 0.010 0.002 0.023 0.002 0.035 0 0.114-0.047 0.216-0.123 0.289l-0 0c-0.077 0.065-0.178 0.105-0.287 0.105s-0.21-0.040-0.288-0.105l0.001 0.001c-0.076-0.073-0.123-0.175-0.123-0.289 0-0.012 0.001-0.025 0.002-0.037l-0 0.002v-2.239c-0.001-0.010-0.001-0.022-0.001-0.034 0-0.113 0.047-0.216 0.123-0.289l0-0c0.077-0.065 0.178-0.105 0.287-0.105s0.21 0.040 0.288 0.105l-0.001-0.001c0.076 0.073 0.123 0.175 0.123 0.289 0 0.012-0.001 0.025-0.002 0.037l0-0.002v2.24zM10.072 29.969v-4.24h-0.586l-0.771 2.244h-0.010l-0.777-2.244h-0.58v4.239h0.606v-2.578h0.011l0.593 1.823h0.302l0.598-1.823h0.010v2.578h0.606zM13.513 26.027c-0.093-0.105-0.211-0.185-0.342-0.232-0.124-0.042-0.267-0.066-0.416-0.066-0.008 0-0.016 0-0.024 0l0.001-0h-0.9v4.24h0.604v-1.656h0.311c0.189 0.009 0.376-0.031 0.545-0.116 0.139-0.078 0.251-0.188 0.329-0.32l0.002-0.004c0.070-0.113 0.117-0.238 0.138-0.369 0.021-0.133 0.033-0.287 0.033-0.444 0-0.013-0-0.027-0-0.040l0 0.002c0.006-0.203-0.014-0.407-0.059-0.606-0.043-0.153-0.12-0.284-0.223-0.39l0 0zM13.201 27.319c-0.003 0.081-0.023 0.157-0.057 0.224l0.001-0.003c-0.035 0.065-0.089 0.116-0.154 0.147l-0.002 0.001c-0.075 0.034-0.162 0.054-0.254 0.054-0.011 0-0.022-0-0.033-0.001l0.002 0h-0.276v-1.441h0.311c0.009-0 0.019-0.001 0.029-0.001 0.088 0 0.172 0.020 0.247 0.055l-0.004-0.002c0.062 0.036 0.111 0.090 0.141 0.154l0.001 0.002c0.033 0.074 0.051 0.155 0.053 0.236v0.282c0 0.098 0.006 0.201 0 0.291h-0.006zM16.374 25.729h-0.495l-0.934 4.24h0.604l0.177-0.911h0.823l0.178 0.911h0.604l-0.957-4.24zM15.817 28.481l0.297-1.537h0.011l0.295 1.537h-0.604zM20.277 28.283h-0.011l-0.913-2.554h-0.58v4.24h0.604v-2.55h0.012l0.923 2.549h0.568v-4.239h-0.604v2.554zM23.968 25.729l-0.486 1.686h-0.012l-0.486-1.686h-0.639l0.83 2.448v1.791h0.604v-1.791l0.83-2.447h-0.64zM0 31.166h0.291v0.817h0.198v-0.817h0.289v-0.167h-0.778v0.168zM2.447 30.998l-0.382 0.985h0.21l0.081-0.224h0.392l0.084 0.224h0.215l-0.391-0.985h-0.21zM2.417 31.593l0.134-0.365 0.134 0.365h-0.268zM4.866 31.62h0.228v0.127c-0.063 0.051-0.145 0.082-0.234 0.083h-0c-0.004 0-0.009 0-0.014 0-0.079 0-0.149-0.037-0.195-0.094l-0-0c-0.046-0.065-0.073-0.147-0.073-0.234 0-0.008 0-0.016 0.001-0.023l-0 0.001c0-0.219 0.095-0.329 0.283-0.329 0.006-0.001 0.014-0.001 0.021-0.001 0.097 0 0.178 0.067 0.201 0.157l0 0.001 0.194-0.038c-0.042-0.192-0.18-0.289-0.417-0.289-0.004-0-0.008-0-0.013-0-0.127 0-0.244 0.048-0.331 0.127l0-0c-0.088 0.087-0.143 0.208-0.143 0.342 0 0.013 0 0.026 0.002 0.038l-0-0.002c-0 0.007-0 0.015-0 0.023 0 0.132 0.048 0.254 0.127 0.347l-0.001-0.001c0.087 0.090 0.209 0.146 0.343 0.146 0.011 0 0.021-0 0.032-0.001l-0.001 0c0.005 0 0.010 0 0.016 0 0.155 0 0.296-0.060 0.402-0.157l-0 0v-0.388h-0.426v0.166zM7.337 30.998h-0.199v0.985h0.689v-0.167h-0.49v-0.817zM9.426 30.998h-0.199v0.985h0.199v-0.985zM11.469 31.655l-0.404-0.657h-0.193v0.985h0.185v-0.643l0.396 0.643h0.198v-0.985h-0.182v0.658zM13.315 31.549h0.49v-0.167h-0.49v-0.215h0.527v-0.168h-0.727v0.985h0.747v-0.167h-0.548v-0.266zM17.792 31.386h-0.388v-0.388h-0.198v0.984h0.198v-0.431h0.388v0.431h0.198v-0.985h-0.198v0.388zM19.649 31.549h0.492v-0.167h-0.492v-0.215h0.529v-0.168h-0.726v0.985h0.746v-0.167h-0.548v-0.266zM22.168 31.55c0.172-0.027 0.258-0.118 0.258-0.274 0.001-0.008 0.002-0.018 0.002-0.028 0-0.079-0.038-0.148-0.098-0.191l-0.001-0c-0.073-0.037-0.159-0.059-0.25-0.059-0.014 0-0.027 0-0.040 0.001l0.002-0h-0.417v0.984h0.198v-0.412h0.039c0.005-0 0.010-0 0.016-0 0.039 0 0.076 0.008 0.109 0.023l-0.002-0.001c0.029 0.018 0.053 0.042 0.070 0.072l0.215 0.313h0.236l-0.12-0.192c-0.054-0.096-0.128-0.175-0.215-0.235l-0.002-0.002zM21.969 31.413h-0.146v-0.247h0.156c0.012-0.001 0.027-0.002 0.042-0.002 0.057 0 0.111 0.009 0.163 0.026l-0.004-0.001c0.026 0.024 0.043 0.058 0.043 0.096 0 0.042-0.020 0.080-0.052 0.104l-0 0c-0.049 0.016-0.106 0.025-0.164 0.025-0.013 0-0.026-0-0.039-0.001l0.002 0zM24.068 31.549h0.49v-0.167h-0.49v-0.215h0.529v-0.168h-0.728v0.985h0.747v-0.167h-0.548v-0.266z"></path>
</symbol>
<symbol id="icon-logo-3" viewBox="0 0 31 32">
<path fill="#afb1b8" style="fill: var(--color5, #afb1b8)" d="M4.722 31.103c0.023 0.001 0.044 0.010 0.060 0.025v0l0.153 0.161c-0.119 0.13-0.266 0.234-0.431 0.304-0.194 0.077-0.401 0.115-0.61 0.109-0.009 0-0.020 0-0.031 0-0.196 0-0.382-0.038-0.554-0.106l0.010 0.004c-0.332-0.134-0.588-0.397-0.709-0.725l-0.003-0.009c-0.061-0.164-0.097-0.353-0.097-0.55 0-0.007 0-0.015 0-0.022v0.001c-0-0.007-0-0.015-0-0.023 0-0.198 0.038-0.387 0.108-0.56l-0.004 0.010c0.067-0.165 0.168-0.316 0.298-0.444 0.13-0.127 0.286-0.225 0.459-0.29 0.188-0.070 0.389-0.104 0.591-0.102 0.188-0.004 0.375 0.027 0.55 0.093 0.151 0.063 0.29 0.149 0.412 0.257l-0.129 0.171c-0.009 0.012-0.020 0.023-0.032 0.031l-0 0c-0.013 0.009-0.028 0.014-0.045 0.014-0.002 0-0.004-0-0.006-0l0 0c-0.021-0.001-0.040-0.008-0.056-0.019l0 0-0.068-0.045-0.096-0.059c-0.087-0.046-0.189-0.082-0.296-0.101l-0.006-0.001c-0.063-0.011-0.135-0.018-0.209-0.018-0.007 0-0.013 0-0.020 0h0.001c-0.005-0-0.010-0-0.016-0-0.147 0-0.288 0.028-0.417 0.079l0.008-0.003c-0.13 0.051-0.241 0.124-0.333 0.216l0-0c-0.095 0.099-0.169 0.216-0.216 0.342-0.054 0.145-0.081 0.298-0.079 0.452-0.002 0.156 0.025 0.313 0.079 0.46 0.046 0.126 0.119 0.242 0.212 0.341 0.088 0.093 0.196 0.165 0.318 0.212 0.125 0.049 0.259 0.074 0.394 0.073 0.078 0.001 0.156-0.004 0.234-0.015 0.127-0.015 0.247-0.057 0.354-0.122 0.054-0.034 0.104-0.071 0.151-0.113 0.019-0.017 0.044-0.029 0.072-0.030h0zM9.144 30.296c0.002 0.194-0.033 0.387-0.103 0.568-0.067 0.172-0.165 0.319-0.288 0.44l-0 0c-0.126 0.123-0.276 0.221-0.444 0.286l-0.009 0.003c-0.173 0.065-0.373 0.102-0.582 0.102s-0.409-0.037-0.594-0.106l0.012 0.004c-0.175-0.069-0.325-0.167-0.45-0.29l0 0c-0.123-0.123-0.222-0.271-0.288-0.436l-0.003-0.009c-0.065-0.169-0.103-0.364-0.103-0.568s0.038-0.399 0.107-0.579l-0.004 0.011c0.065-0.166 0.164-0.318 0.29-0.447 0.126-0.119 0.276-0.214 0.441-0.276l0.009-0.003c0.173-0.066 0.373-0.104 0.582-0.104s0.409 0.038 0.594 0.108l-0.012-0.004c0.17 0.066 0.324 0.164 0.452 0.29 0.127 0.127 0.224 0.275 0.289 0.439 0.071 0.182 0.106 0.376 0.104 0.571zM8.742 30.296c0-0.007 0-0.016 0-0.024 0-0.155-0.027-0.303-0.076-0.441l0.003 0.009c-0.087-0.256-0.278-0.457-0.522-0.554l-0.006-0.002c-0.126-0.047-0.271-0.075-0.423-0.075s-0.297 0.027-0.432 0.078l0.009-0.003c-0.251 0.099-0.443 0.299-0.528 0.55l-0.002 0.006c-0.097 0.298-0.097 0.615 0 0.912 0.087 0.256 0.279 0.457 0.524 0.552l0.006 0.002c0.273 0.097 0.573 0.097 0.846 0 0.124-0.048 0.234-0.121 0.324-0.214 0.092-0.1 0.162-0.216 0.205-0.341 0.052-0.147 0.076-0.301 0.073-0.456zM12.16 30.774l0.041 0.102c0.015-0.036 0.028-0.069 0.044-0.102 0.017-0.040 0.034-0.073 0.052-0.105l-0.002 0.005 0.978-1.694c0.019-0.030 0.037-0.048 0.056-0.053 0.020-0.006 0.043-0.009 0.066-0.009 0.005 0 0.010 0 0.015 0l-0.001-0h0.289v2.755h-0.342v-2.11c-0.001-0.014-0.001-0.031-0.001-0.048s0.001-0.033 0.001-0.050l-0 0.002-0.984 1.718c-0.013 0.026-0.033 0.048-0.057 0.062l-0.001 0c-0.023 0.014-0.052 0.022-0.082 0.022-0.001 0-0.002 0-0.002-0h-0.055c-0.030 0.001-0.060-0.007-0.084-0.022s-0.044-0.036-0.057-0.062l-0-0.001-1.013-1.73v2.212h-0.331v-2.75h0.289c0.004-0 0.009-0 0.014-0 0.024 0 0.046 0.003 0.068 0.010l-0.002-0c0.024 0.011 0.042 0.029 0.053 0.052l0 0.001 0.999 1.696c0.018 0.028 0.035 0.060 0.048 0.094l0.001 0.004zM15.841 30.638v1.031h-0.383v-2.75h0.854c0.010-0 0.021-0 0.033-0 0.158 0 0.311 0.022 0.455 0.063l-0.012-0.003c0.124 0.034 0.239 0.092 0.337 0.171 0.085 0.074 0.15 0.167 0.191 0.27 0.045 0.112 0.067 0.232 0.066 0.352 0.002 0.121-0.022 0.24-0.071 0.352-0.049 0.109-0.119 0.201-0.205 0.274l-0.001 0.001c-0.095 0.080-0.209 0.143-0.333 0.181l-0.007 0.002c-0.149 0.045-0.305 0.067-0.461 0.064l-0.463-0.007zM15.841 30.342h0.464c0.1 0.002 0.201-0.013 0.296-0.042 0.083-0.027 0.154-0.068 0.215-0.12l-0.001 0.001c0.056-0.049 0.1-0.11 0.129-0.178l0.001-0.003c0.029-0.066 0.046-0.144 0.046-0.225 0-0.003-0-0.005-0-0.008v0c0-0.008 0.001-0.018 0.001-0.028 0-0.071-0.015-0.138-0.041-0.199l0.001 0.003c-0.032-0.074-0.077-0.137-0.133-0.188l-0-0c-0.126-0.094-0.285-0.15-0.457-0.15-0.020 0-0.040 0.001-0.060 0.002l0.003-0h-0.464v1.134zM20.987 31.673h-0.302c-0.002 0-0.004 0-0.006 0-0.030 0-0.057-0.010-0.079-0.026l0 0c-0.021-0.017-0.038-0.038-0.049-0.063l-0-0.001-0.26-0.665h-1.307l-0.27 0.665c-0.011 0.025-0.027 0.046-0.047 0.061l-0 0c-0.022 0.017-0.051 0.028-0.082 0.028-0.002 0-0.003-0-0.005-0h-0.302l1.148-2.756h0.398l1.164 2.756zM19.092 30.65h1.079l-0.455-1.122c-0.030-0.071-0.060-0.157-0.083-0.245l-0.003-0.013-0.044 0.144c-0.015 0.049-0.029 0.088-0.045 0.126l0.003-0.009-0.452 1.119zM22.64 28.93c0.023 0.013 0.043 0.030 0.058 0.050l1.674 2.076v-2.139h0.342v2.756h-0.191c-0.001 0-0.003 0-0.005 0-0.027 0-0.052-0.006-0.074-0.017l0.001 0c-0.024-0.014-0.044-0.031-0.061-0.051l-0-0-1.674-2.075c0.002 0.031 0.002 0.063 0 0.095v2.049h-0.342v-2.756h0.203c0.024 0 0.047 0.004 0.068 0.013zM27.537 30.577v1.094h-0.383v-1.094l-1.058-1.66h0.342c0.002-0 0.005-0 0.008-0 0.028 0 0.054 0.009 0.075 0.024l-0-0c0.021 0.018 0.038 0.038 0.052 0.061l0.001 0.001 0.662 1.070c0.026 0.045 0.049 0.088 0.068 0.128s0.034 0.078 0.048 0.116l0.050-0.118c0.021-0.049 0.043-0.090 0.068-0.13l-0.002 0.004 0.653-1.078c0.014-0.022 0.031-0.042 0.050-0.059l0-0c0.020-0.017 0.047-0.027 0.076-0.027 0.002 0 0.004 0 0.006 0h0.346l-1.060 1.667zM11.971 24.293c0.167 0.020 0.335 0.037 0.506 0.051 2.582-1.101 4.767-2.902 6.281-5.18s2.29-4.93 2.231-7.625l-2.846-2.712c0.189 0.894 0.297 1.921 0.297 2.974 0 2.015-0.396 3.937-1.115 5.694l0.036-0.1c-1.090 2.731-2.957 5.12-5.39 6.899z"></path>
<path fill="#afb1b8" style="fill: var(--color5, #afb1b8)" d="M10.954 24.167l0.077 0.015c2.6-1.773 4.583-4.247 5.692-7.104 0.627-1.564 0.991-3.378 0.991-5.276 0-1.296-0.17-2.553-0.488-3.748l0.023 0.101-4.054-3.862c1.269 2.397 2.015 5.239 2.015 8.255 0 0.701-0.040 1.393-0.119 2.074l0.008-0.083c-0.397 3.519-1.834 6.857-4.144 9.628zM24.704 14.724c-0.688 2.962-2.361 5.632-4.77 7.616-0.665 0.553-1.406 1.066-2.191 1.51l-0.075 0.039c2.039-0.578 3.804-1.556 5.285-2.851l-0.016 0.013c1.465-1.281 2.625-2.875 3.381-4.679l0.031-0.084-1.645-1.565z"></path>
<path fill="#afb1b8" style="fill: var(--color5, #afb1b8)" d="M24.060 14.288l-2.341-2.23c-0.053 2.681-0.865 5.162-2.23 7.249l0.032-0.053c-1.394 2.169-3.373 3.943-5.729 5.137h0.012c0.525 0 1.049-0.030 1.572-0.089 2.251-0.884 4.15-2.237 5.649-3.95l0.014-0.017c1.454-1.66 2.512-3.704 3.005-5.958l0.016-0.089zM11.294 2.664l-2.793-2.664c-2.497 0.919-4.644 2.535-6.16 4.636s-2.333 4.589-2.34 7.139c0.010 2.818 1.005 5.552 2.829 7.77s4.372 3.793 7.242 4.476c2.562-2.973 4.061-6.647 4.281-10.488s-0.851-7.648-3.059-10.87zM30.512 13.878c-0.010-3.343-1.409-6.547-3.89-8.91s-5.843-3.696-9.352-3.706c-1.622-0.002-3.23 0.284-4.741 0.841l17.099 16.29c0.559-1.335 0.884-2.886 0.884-4.513 0-0 0-0.001 0-0.001v0z"></path>
</symbol>
<symbol id="icon-logo-5" viewBox="0 0 40 32">
<path fill="#afb1b8" style="fill: var(--color5, #afb1b8)" d="M3.056 26.742c0.157 0.194 0.24 0.438 0.236 0.688 0.001 0.016 0.001 0.035 0.001 0.053 0 0.324-0.141 0.615-0.365 0.815l-0.001 0.001c-0.304 0.231-0.681 0.343-1.061 0.317h-1.865v-4.361h1.827c0.031-0.002 0.067-0.003 0.103-0.003 0.341 0 0.657 0.11 0.914 0.297l-0.004-0.003c0.218 0.184 0.355 0.457 0.355 0.763 0 0.018-0.001 0.037-0.002 0.055l0-0.003c0.011 0.24-0.065 0.477-0.212 0.667-0.142 0.173-0.338 0.293-0.556 0.34 0.247 0.046 0.471 0.177 0.63 0.373zM0.868 26.084h0.78c0.178 0.014 0.354-0.038 0.497-0.145 0.104-0.095 0.169-0.232 0.169-0.383 0-0.015-0.001-0.030-0.002-0.045l0 0.002c0.001-0.011 0.001-0.024 0.001-0.037 0-0.153-0.064-0.291-0.167-0.389l-0-0c-0.124-0.093-0.281-0.15-0.45-0.15-0.021 0-0.043 0.001-0.064 0.003l0.003-0h-0.767v1.144zM2.222 27.756c0.114-0.1 0.186-0.246 0.186-0.408 0-0.012-0-0.024-0.001-0.036l0 0.002c0.001-0.010 0.001-0.021 0.001-0.032 0-0.166-0.073-0.314-0.189-0.416l-0.001-0.001c-0.132-0.099-0.299-0.159-0.48-0.159-0.018 0-0.036 0.001-0.054 0.002l0.002-0h-0.818v1.199h0.829c0.187 0.011 0.372-0.042 0.524-0.151zM6.79 28.617l-1.016-1.704h-0.382v1.704h-0.874v-4.361h1.654c0.034-0.003 0.074-0.004 0.114-0.004 0.396 0 0.76 0.142 1.042 0.377l-0.003-0.002c0.245 0.251 0.397 0.595 0.397 0.974 0 0.313-0.103 0.601-0.277 0.834l0.003-0.004c-0.204 0.235-0.483 0.392-0.789 0.443l1.083 1.743h-0.95zM5.392 26.318h0.715c0.497 0 0.745-0.22 0.745-0.66 0.001-0.011 0.001-0.024 0.001-0.037 0-0.176-0.070-0.336-0.184-0.453l0 0c-0.133-0.112-0.306-0.18-0.496-0.18-0.024 0-0.047 0.001-0.070 0.003l0.003-0h-0.724l0.009 1.328zM11.568 27.739h-1.742l-0.308 0.878h-0.916l1.6-4.313h0.991l1.593 4.312h-0.916l-0.301-0.878zM11.335 27.079l-0.637-1.84-0.637 1.84h1.273zM17.55 28.617h-0.869l-1.946-2.965v2.965h-0.865v-4.361h0.865l1.946 2.982v-2.982h0.868v4.361zM22.502 27.573c-0.182 0.33-0.45 0.593-0.775 0.764l-0.010 0.005c-0.378 0.191-0.797 0.286-1.22 0.274h-1.546v-4.361h1.546c0.020-0.001 0.043-0.001 0.067-0.001 0.42 0 0.817 0.1 1.168 0.277l-0.015-0.007c0.332 0.168 0.606 0.433 0.786 0.761 0.171 0.333 0.272 0.727 0.272 1.144s-0.1 0.811-0.278 1.158l0.007-0.014zM21.509 27.469c0.239-0.278 0.384-0.642 0.384-1.041s-0.145-0.763-0.386-1.043l0.002 0.002c-0.264-0.232-0.612-0.374-0.993-0.374-0.033 0-0.066 0.001-0.098 0.003l0.004-0h-0.603v2.823h0.603c0.028 0.002 0.061 0.003 0.094 0.003 0.381 0 0.729-0.141 0.994-0.375l-0.002 0.001zM12.111 0s11.201 4.246 10.964 10.39v10.392s-11.193-4.248-10.959-10.392l-0.005-10.39zM33.053 18.349c2.005-1.402 4.428-2.346 7.049-2.628l0.068-0.006v-3.253c-2.995 1.181-5.437 3.227-7.081 5.827l-0.035 0.060z"></path>
<path fill="#afb1b8" style="fill: var(--color5, #afb1b8)" d="M31.782 19.329c1.749-3.487 4.693-6.158 8.283-7.513l0.105-0.035v-9.373s-15.952 6.048-15.615 14.797v14.796s0.711-0.27 1.829-0.778c0-0.473 0-0.95 0.050-1.43 0.35-4.206 2.343-7.888 5.327-10.447l0.021-0.017z"></path>
<path fill="#afb1b8" style="fill: var(--color5, #afb1b8)" d="M30.266 24.825c0.084-1.026 0.27-2.041 0.558-3.030-2.038 2.401-3.303 5.514-3.378 8.921l-0 0.016c1.299-0.625 2.304-1.166 3.286-1.741l-0.218 0.118c-0.191-0.908-0.3-1.952-0.3-3.021 0-0.445 0.019-0.885 0.056-1.32l-0.004 0.057zM30.9 24.878c-0.031 0.359-0.049 0.777-0.049 1.199 0 0.948 0.090 1.874 0.261 2.772l-0.015-0.092c4.358-2.619 9.255-6.664 9.067-11.553v-0.426c-3.246 0.375-6.107 1.788-8.297 3.894l0.005-0.005c-0.501 1.234-0.847 2.664-0.968 4.158l-0.003 0.052z"></path>
</symbol>
<symbol id="icon-logo-6" viewBox="0 0 62 32">
<path fill="#afb1b8" style="fill: var(--color5, #afb1b8)" d="M31.123 14.854c-0.251-0.36-0.401-0.806-0.401-1.287 0-0.051 0.002-0.101 0.005-0.15l-0 0.007v-2.074c0-0.637 0.132-1.12 0.394-1.45s0.715-0.495 1.356-0.494c0.602 0 1.030 0.141 1.282 0.422 0.275 0.359 0.41 0.798 0.379 1.241v0.487h-1.077v-0.494c0-0.019 0.001-0.041 0.001-0.064 0-0.148-0.012-0.293-0.034-0.435l0.002 0.016c-0.017-0.115-0.073-0.214-0.153-0.287l-0-0c-0.095-0.071-0.215-0.113-0.345-0.113-0.016 0-0.032 0.001-0.048 0.002l0.002-0c-0.014-0.001-0.029-0.002-0.045-0.002-0.137 0-0.264 0.045-0.367 0.121l0.002-0.001c-0.090 0.081-0.154 0.19-0.178 0.313l-0.001 0.004c-0.031 0.169-0.045 0.341-0.042 0.513v2.518c-0.002 0.029-0.003 0.062-0.003 0.096 0 0.222 0.052 0.432 0.145 0.619l-0.004-0.008c0.055 0.075 0.128 0.134 0.212 0.171l0.003 0.001c0.063 0.027 0.136 0.044 0.213 0.044 0.023 0 0.045-0.001 0.067-0.004l-0.003 0c0.013 0.001 0.029 0.002 0.044 0.002 0.128 0 0.245-0.044 0.338-0.117l-0.001 0.001c0.084-0.079 0.142-0.184 0.16-0.303l0-0.003c0.026-0.167 0.037-0.336 0.034-0.504v-0.511h1.077v0.466c0.003 0.038 0.004 0.083 0.004 0.128 0 0.442-0.141 0.85-0.381 1.183l0.004-0.006c-0.247 0.308-0.669 0.462-1.288 0.462s-1.088-0.164-1.354-0.506zM35.608 14.876c-0.272-0.323-0.408-0.794-0.408-1.416v-2.183c0-0.616 0.136-1.082 0.408-1.399s0.726-0.474 1.364-0.473c0.633 0 1.085 0.158 1.358 0.473 0.271 0.317 0.41 0.783 0.41 1.399v2.183c0 0.616-0.139 1.089-0.415 1.414-0.277 0.325-0.727 0.487-1.354 0.487s-1.090-0.164-1.364-0.485zM37.473 14.352c0.097-0.202 0.142-0.424 0.129-0.646v-2.672c0.001-0.021 0.002-0.047 0.002-0.072 0-0.204-0.048-0.397-0.133-0.569l0.003 0.007c-0.056-0.076-0.13-0.136-0.216-0.173l-0.003-0.001c-0.062-0.027-0.135-0.042-0.211-0.042-0.026 0-0.051 0.002-0.076 0.005l0.003-0c-0.022-0.003-0.047-0.005-0.073-0.005-0.077 0-0.15 0.016-0.216 0.044l0.004-0.001c-0.090 0.038-0.164 0.098-0.219 0.172l-0.001 0.001c-0.098 0.197-0.143 0.415-0.129 0.633v2.685c-0.014 0.223 0.031 0.444 0.129 0.646 0.062 0.067 0.138 0.121 0.222 0.158l0.004 0.002c0.082 0.036 0.177 0.057 0.277 0.057s0.195-0.021 0.281-0.059l-0.005 0.002c0.089-0.039 0.164-0.093 0.226-0.16l0-0v-0.013zM40.035 9.468h1.16l0.872 4.028 0.892-4.028h1.128l0.113 5.813h-0.833l-0.089-4.040-0.861 4.040h-0.669l-0.892-4.054-0.083 4.054h-0.843l0.104-5.812zM45.5 9.468h1.806c1.040 0 1.56 0.55 1.56 1.651 0 1.054-0.547 1.58-1.643 1.579h-0.614v2.583h-1.115l0.007-5.812zM47.043 11.952c0.11 0.014 0.222 0.004 0.327-0.028 0.106-0.031 0.204-0.085 0.286-0.155 0.128-0.197 0.184-0.427 0.16-0.657 0.001-0.020 0.001-0.044 0.001-0.067 0-0.163-0.020-0.322-0.057-0.474l0.003 0.014c-0.017-0.062-0.045-0.115-0.083-0.161l0.001 0.001c-0.039-0.047-0.086-0.087-0.139-0.116l-0.002-0.001c-0.129-0.059-0.279-0.094-0.437-0.094-0.021 0-0.042 0.001-0.062 0.002l0.003-0h-0.433v1.736h0.433zM50.474 9.468h1.197l1.229 5.813h-1.039l-0.243-1.341h-1.068l-0.25 1.341h-1.055l1.229-5.812zM51.497 13.267l-0.417-2.44-0.417 2.44h0.835zM53.892 9.468h0.779l1.494 3.316v-3.316h0.925v5.812h-0.742l-1.503-3.462v3.462h-0.957l0.002-5.812zM59.258 13.064l-1.242-3.588h1.046l0.758 2.305 0.711-2.305h1.023l-1.226 3.588v2.216h-1.071v-2.216zM32.845 17.822v0.304h-0.91v2.362h-0.381v-2.362h-0.914v-0.304h2.205zM35.697 20.488h-0.294c-0.002 0-0.005 0-0.008 0-0.028 0-0.054-0.010-0.075-0.026l0 0c-0.022-0.015-0.038-0.036-0.048-0.060l-0-0.001-0.263-0.633h-1.262l-0.264 0.633c-0.008 0.028-0.022 0.052-0.040 0.072l0-0c-0.021 0.016-0.047 0.025-0.076 0.025-0.002 0-0.005-0-0.007-0h-0.294l1.115-2.666h0.387l1.128 2.655zM33.85 19.498h1.053l-0.446-1.085c-0.028-0.067-0.057-0.15-0.080-0.236l-0.003-0.014-0.042 0.141-0.040 0.111-0.442 1.083zM37.619 20.226c0.070 0.003 0.139 0.003 0.209 0 0.061-0.006 0.12-0.017 0.179-0.032 0.063-0.015 0.117-0.032 0.169-0.052l-0.009 0.003c0.049-0.019 0.099-0.042 0.15-0.065v-0.6h-0.446c-0.002 0-0.003 0-0.005 0-0.021 0-0.041-0.008-0.055-0.021l0 0c-0.014-0.011-0.022-0.027-0.022-0.046 0-0.001 0-0.002 0-0.003v0-0.205h0.865v1.022c-0.135 0.092-0.292 0.166-0.459 0.214l-0.012 0.003c-0.078 0.023-0.173 0.043-0.269 0.055l-0.009 0.001c-0.096 0.011-0.208 0.017-0.321 0.017-0.002 0-0.003 0-0.005 0h0c-0.004 0-0.008 0-0.013 0-0.197 0-0.386-0.037-0.56-0.103l0.011 0.004c-0.173-0.066-0.321-0.161-0.446-0.279l0.001 0.001c-0.12-0.117-0.218-0.258-0.285-0.414l-0.003-0.008c-0.065-0.159-0.103-0.343-0.103-0.535 0-0.006 0-0.012 0-0.018v0.001c-0-0.005-0-0.011-0-0.017 0-0.195 0.037-0.38 0.105-0.551l-0.004 0.010c0.064-0.158 0.161-0.301 0.287-0.422 0.127-0.12 0.279-0.214 0.446-0.277 0.191-0.068 0.394-0.102 0.598-0.099 0.104 0 0.207 0.007 0.31 0.023 0.090 0.014 0.179 0.036 0.266 0.067 0.078 0.028 0.153 0.063 0.223 0.106 0.069 0.042 0.134 0.088 0.195 0.139l-0.108 0.165c-0.009 0.015-0.021 0.027-0.036 0.036l-0 0c-0.015 0.009-0.032 0.014-0.051 0.014h-0c-0.026-0.001-0.050-0.008-0.070-0.021l0.001 0c-0.044-0.023-0.079-0.043-0.114-0.066l0.005 0.003c-0.042-0.026-0.092-0.050-0.143-0.070l-0.007-0.002c-0.057-0.023-0.126-0.043-0.197-0.058l-0.008-0.001c-0.081-0.015-0.173-0.023-0.268-0.023-0.005 0-0.011 0-0.016 0h0.001c-0.004-0-0.009-0-0.013-0-0.15 0-0.293 0.027-0.425 0.077l0.008-0.003c-0.125 0.047-0.237 0.119-0.328 0.211-0.093 0.096-0.163 0.209-0.207 0.332-0.047 0.132-0.075 0.285-0.075 0.444s0.027 0.312 0.078 0.454l-0.003-0.009c0.049 0.125 0.125 0.24 0.223 0.335 0.092 0.092 0.202 0.163 0.326 0.211 0.142 0.046 0.292 0.064 0.442 0.053zM41.172 20.184h1.217v0.304h-1.59v-2.666h0.381l-0.009 2.362zM43.656 20.487h-0.381v-2.664h0.381v2.666zM45.074 17.834c0.023 0.013 0.042 0.029 0.057 0.048l0 0 1.63 2.010c-0.001-0.014-0.002-0.031-0.002-0.048s0.001-0.033 0.002-0.050l-0 0.002v-1.986h0.332v2.676h-0.191c-0.004 0-0.009 0.001-0.013 0.001-0.025 0-0.049-0.006-0.071-0.016l0.001 0c-0.023-0.014-0.043-0.031-0.060-0.050l-0-0-1.628-2.007v2.072h-0.319v-2.665h0.198c0.022 0 0.043 0.004 0.063 0.013zM49.901 17.822v0.294h-1.351v0.88h1.095v0.282h-1.095v0.91h1.351v0.294h-1.743v-2.659h1.743zM9.95 1.359l16.929 4.55v15.946l-16.927-4.547v-15.949zM8.865 0v18.081l19.098 5.135v-18.080l-19.098-5.137z"></path>
<path fill="#afb1b8" style="fill: var(--color5, #afb1b8)" d="M19.1 31.61l-19.1-5.139v-18.080l19.1 5.137v18.082z"></path>
<path fill="#afb1b8" style="fill: var(--color5, #afb1b8)" d="M9.181 1.155l16.707 4.493-7.105 6.728-16.71-4.495 7.107-6.727zM8.865 0l-8.865 8.392 19.1 5.137 8.863-8.392-19.098-5.137zM20.175 30.593l7.788-7.374-7.788-2.096v9.47z"></path>
</symbol>
<symbol id="icon-twitter" viewBox="0 0 32 32">
<path fill="#afb1b8" style="fill: var(--color5, #afb1b8)" d="M32 6.078c-1.1 0.493-2.376 0.857-3.713 1.028l-0.068 0.007c1.36-0.817 2.382-2.078 2.873-3.579l0.013-0.046c-1.197 0.722-2.591 1.273-4.076 1.573l-0.084 0.014c-1.2-1.279-2.9-2.076-4.787-2.076-3.622 0-6.558 2.936-6.558 6.558 0 0.001 0 0.003 0 0.004v-0c0 0.52 0.043 1.021 0.152 1.496-5.454-0.266-10.28-2.88-13.522-6.861-0.564 0.949-0.899 2.092-0.902 3.313v0.001c0 2.272 1.171 4.286 2.914 5.451-1.091-0.030-2.107-0.325-2.994-0.823l0.033 0.017v0.072c0.003 3.165 2.236 5.807 5.213 6.44l0.043 0.008c-0.499 0.136-1.071 0.215-1.662 0.215-0.020 0-0.041-0-0.061-0l0.003 0c-0.419 0-0.843-0.024-1.242-0.112 0.85 2.598 3.261 4.509 6.13 4.57-2.215 1.746-5.045 2.8-8.122 2.8-0.004 0-0.008 0-0.013 0h0.001c-0.018 0-0.040 0-0.062 0-0.531 0-1.055-0.034-1.569-0.099l0.061 0.006c2.826 1.846 6.287 2.944 10.004 2.944 0.021 0 0.042-0 0.063-0h-0.003c12.072 0 18.672-10 18.672-18.669 0-0.288-0.010-0.57-0.024-0.848 1.299-0.936 2.39-2.064 3.258-3.355l0.030-0.047z"></path>
</symbol>
<symbol id="icon-linkedin" viewBox="0 0 32 32">
<path fill="#afb1b8" style="fill: var(--color5, #afb1b8)" d="M31.992 32h0.008v-11.738c0-5.741-1.237-10.163-7.947-10.163-3.227 0-5.392 1.77-6.277 3.45h-0.093v-2.914h-6.365v21.363h6.627v-10.578c0-2.786 0.528-5.48 3.978-5.48 3.398 0 3.448 3.179 3.448 5.658v10.402h6.621zM0.528 10.635h6.635v21.365h-6.635v-21.365zM3.843 0c-2.123 0-3.843 1.721-3.843 3.843v0c0 2.12 1.722 3.878 3.843 3.878 2.12 0 3.842-1.757 3.842-3.878s-1.72-3.841-3.841-3.843h-0z"></path>
</symbol>
<symbol id="icon-facebook" viewBox="0 0 32 32">
<path fill="#afb1b8" style="fill: var(--color5, #afb1b8)" d="M21.328 5.312h2.923v-5.088c-1.232-0.143-2.66-0.224-4.108-0.224-0.052 0-0.104 0-0.156 0l0.008-0c-4.213 0-7.099 2.65-7.099 7.52v4.48h-4.646v5.688h4.646v14.312h5.699v-14.31h4.459l0.707-5.688h-5.168v-3.922c0-1.643 0.443-2.768 2.734-2.768z"></path>
</symbol>
<symbol id="icon-WebStudio" viewBox="0 0 232 32">
<path fill="#2196f3" style="fill: var(--color1, #2196f3)" d="M13.27 0.947h5.283l3.328 9.776 3.328-9.776h5.325l-5.034 13.437 3.744 9.443 8.362-22.963h6.24l-12.022 29.536h-4.826l-5.117-12.397-5.117 12.397h-4.826l-11.939-29.536h6.157l8.403 22.963 3.661-9.443-4.95-13.437zM55.007 30.816c-1.747 0-3.328-0.291-4.742-0.874-1.414-0.61-2.621-1.428-3.619-2.454s-1.775-2.219-2.33-3.578c-0.527-1.359-0.79-2.787-0.79-4.285 0-1.553 0.264-3.009 0.79-4.368 0.527-1.387 1.29-2.593 2.288-3.619 0.998-1.054 2.205-1.886 3.619-2.496 1.442-0.61 3.051-0.915 4.826-0.915s3.356 0.305 4.742 0.915c1.414 0.61 2.607 1.428 3.578 2.454 0.998 1.026 1.747 2.219 2.246 3.578 0.527 1.359 0.79 2.773 0.79 4.243 0 0.36-0.014 0.707-0.042 1.040 0 0.333-0.028 0.61-0.083 0.832h-16.848c0.083 0.86 0.291 1.622 0.624 2.288s0.763 1.234 1.29 1.706c0.527 0.472 1.123 0.832 1.789 1.082s1.359 0.374 2.080 0.374c1.109 0 2.149-0.264 3.12-0.79 0.998-0.555 1.678-1.276 2.038-2.163l4.784 1.331c-0.804 1.664-2.094 3.037-3.869 4.118-1.747 1.054-3.841 1.581-6.282 1.581zM60.664 17.67c-0.139-1.636-0.749-2.94-1.83-3.91-1.054-0.998-2.344-1.498-3.869-1.498-0.749 0-1.456 0.139-2.122 0.416-0.638 0.25-1.206 0.61-1.706 1.082s-0.915 1.040-1.248 1.706c-0.305 0.666-0.485 1.4-0.541 2.205h11.315zM83.446 30.816c-1.664 0-3.148-0.374-4.451-1.123s-2.33-1.775-3.078-3.078v3.786h-4.867v-30.368h5.574v12.397c0.776-1.331 1.789-2.357 3.037-3.078 1.276-0.749 2.759-1.123 4.451-1.123 1.414 0 2.704 0.305 3.869 0.915s2.163 1.428 2.995 2.454c0.86 1.026 1.511 2.233 1.955 3.619 0.471 1.387 0.707 2.843 0.707 4.368 0 1.581-0.264 3.051-0.79 4.41-0.499 1.359-1.206 2.552-2.122 3.578-0.915 0.998-1.997 1.789-3.245 2.371s-2.593 0.874-4.035 0.874zM81.907 26.074c0.887 0 1.706-0.166 2.454-0.499 0.749-0.36 1.387-0.832 1.914-1.414s0.929-1.262 1.206-2.038c0.305-0.776 0.458-1.608 0.458-2.496s-0.139-1.733-0.416-2.538c-0.277-0.804-0.68-1.511-1.206-2.122-0.499-0.61-1.096-1.095-1.789-1.456s-1.456-0.541-2.288-0.541c-1.248 0-2.371 0.416-3.37 1.248-0.971 0.804-1.72 1.803-2.246 2.995v5.2c0.194 0.555 0.471 1.054 0.832 1.498 0.388 0.444 0.818 0.832 1.29 1.165 0.471 0.305 0.984 0.555 1.539 0.749 0.555 0.166 1.095 0.25 1.622 0.25z"></path>
<path fill="#000" style="fill: var(--color6, #000)" d="M116.8 8.602c-0.194-0.194-0.555-0.458-1.082-0.79-0.499-0.333-1.123-0.652-1.872-0.957-0.721-0.333-1.512-0.61-2.371-0.832s-1.733-0.333-2.621-0.333c-1.581 0-2.76 0.291-3.536 0.874s-1.165 1.401-1.165 2.454c0 0.61 0.139 1.123 0.416 1.539 0.305 0.388 0.735 0.735 1.29 1.040s1.248 0.582 2.080 0.832c0.86 0.25 1.844 0.513 2.954 0.79 1.442 0.388 2.746 0.804 3.91 1.248 1.192 0.444 2.191 0.998 2.995 1.664 0.832 0.666 1.47 1.47 1.914 2.413 0.444 0.915 0.666 2.052 0.666 3.411 0 1.581-0.305 2.94-0.915 4.077-0.582 1.109-1.387 2.011-2.413 2.704-0.998 0.693-2.163 1.206-3.494 1.539-1.304 0.305-2.676 0.458-4.118 0.458-2.219 0-4.41-0.333-6.573-0.998s-4.105-1.608-5.824-2.829l2.538-4.95c0.25 0.25 0.693 0.582 1.331 0.998 0.666 0.388 1.442 0.79 2.33 1.206 0.887 0.388 1.872 0.721 2.954 0.998s2.191 0.416 3.328 0.416c3.162 0 4.742-1.012 4.742-3.037 0-0.638-0.18-1.179-0.541-1.622s-0.874-0.832-1.539-1.165-1.47-0.638-2.413-0.915c-0.943-0.277-1.997-0.582-3.162-0.915-1.414-0.388-2.649-0.804-3.702-1.248-1.026-0.472-1.886-1.012-2.579-1.622-0.693-0.638-1.22-1.359-1.581-2.163-0.333-0.832-0.499-1.817-0.499-2.954 0-1.498 0.277-2.829 0.832-3.994s1.317-2.135 2.288-2.912c0.998-0.777 2.149-1.359 3.453-1.747 1.303-0.416 2.704-0.624 4.202-0.624 2.080 0 3.994 0.333 5.741 0.998 1.747 0.638 3.272 1.401 4.576 2.288l-2.538 4.659zM138.242 29.277c-0.749 0.333-1.664 0.666-2.746 0.998s-2.219 0.499-3.411 0.499c-0.777 0-1.512-0.097-2.205-0.291-0.666-0.194-1.262-0.499-1.789-0.915-0.499-0.444-0.901-0.998-1.206-1.664-0.305-0.693-0.458-1.525-0.458-2.496v-12.522h-2.87v-4.285h2.87v-7.072h5.574v7.072h4.576v4.285h-4.576v10.65c0 0.776 0.194 1.331 0.582 1.664 0.416 0.305 0.915 0.458 1.498 0.458s1.151-0.097 1.706-0.291c0.555-0.194 0.998-0.36 1.331-0.499l1.123 4.41zM149.049 30.816c-2.246 0-3.952-0.721-5.117-2.163s-1.747-3.578-1.747-6.406v-13.645h5.574v12.438c0 3.356 1.206 5.034 3.619 5.034 1.082 0 2.122-0.319 3.12-0.957 1.026-0.666 1.858-1.664 2.496-2.995v-13.52h5.575v15.392c0 0.582 0.096 0.998 0.291 1.248 0.221 0.25 0.568 0.388 1.040 0.416v4.742c-0.555 0.111-1.027 0.18-1.414 0.208-0.362 0.028-0.694 0.042-0.998 0.042-0.998 0-1.817-0.222-2.455-0.666-0.61-0.472-0.971-1.109-1.082-1.914l-0.125-1.747c-0.971 1.498-2.219 2.621-3.744 3.37s-3.203 1.123-5.034 1.123zM178.384 30.816c-1.498 0-2.885-0.291-4.16-0.874s-2.371-1.387-3.286-2.413c-0.915-1.026-1.637-2.219-2.163-3.578-0.499-1.387-0.749-2.87-0.749-4.451s0.235-3.051 0.707-4.41c0.499-1.359 1.179-2.551 2.038-3.578s1.886-1.83 3.078-2.413c1.192-0.582 2.496-0.874 3.91-0.874 1.608 0 3.051 0.388 4.326 1.165 1.304 0.777 2.315 1.789 3.037 3.037v-12.397h5.574v23.962c0 0.582 0.098 0.998 0.291 1.248s0.526 0.388 0.998 0.416v4.742c-0.971 0.194-1.762 0.291-2.371 0.291-0.998 0-1.816-0.25-2.454-0.749s-0.998-1.151-1.082-1.955l-0.125-1.373c-0.805 1.387-1.899 2.44-3.286 3.162-1.358 0.693-2.787 1.040-4.285 1.040zM179.84 26.074c0.526 0 1.067-0.083 1.622-0.25 0.555-0.194 1.067-0.458 1.539-0.79s0.888-0.721 1.248-1.165c0.389-0.444 0.68-0.929 0.874-1.456v-5.2c-0.222-0.61-0.541-1.165-0.957-1.664-0.389-0.527-0.846-0.971-1.373-1.331-0.499-0.388-1.040-0.693-1.622-0.915-0.555-0.222-1.109-0.333-1.664-0.333-0.832 0-1.608 0.18-2.33 0.541-0.693 0.361-1.29 0.86-1.789 1.498-0.499 0.61-0.888 1.317-1.165 2.122s-0.416 1.636-0.416 2.496c0 0.915 0.152 1.761 0.458 2.538s0.722 1.456 1.248 2.038c0.526 0.582 1.15 1.040 1.872 1.373 0.749 0.333 1.566 0.499 2.454 0.499zM197.418 30.4v-21.798h5.574v21.798h-5.574zM197.418 5.565v-5.533h5.574v5.533h-5.574zM219.336 30.816c-1.776 0-3.37-0.305-4.784-0.915s-2.621-1.428-3.619-2.454c-0.971-1.054-1.72-2.26-2.246-3.619-0.528-1.359-0.79-2.787-0.79-4.285 0-1.525 0.262-2.968 0.79-4.326 0.526-1.359 1.275-2.551 2.246-3.578 0.998-1.054 2.205-1.886 3.619-2.496s3.008-0.915 4.784-0.915c1.774 0 3.355 0.305 4.742 0.915 1.414 0.61 2.606 1.442 3.578 2.496 0.998 1.026 1.76 2.219 2.288 3.578 0.526 1.359 0.79 2.801 0.79 4.326 0 1.498-0.264 2.926-0.79 4.285-0.528 1.359-1.277 2.565-2.246 3.619-0.971 1.026-2.163 1.844-3.578 2.454s-3.010 0.915-4.784 0.915zM213.637 19.542c0 0.971 0.138 1.858 0.416 2.662 0.304 0.776 0.707 1.456 1.206 2.038 0.526 0.582 1.136 1.040 1.83 1.373 0.693 0.305 1.442 0.458 2.246 0.458 0.803 0 1.552-0.152 2.246-0.458 0.693-0.333 1.29-0.79 1.789-1.373 0.526-0.582 0.928-1.276 1.206-2.080 0.304-0.804 0.458-1.692 0.458-2.662 0-0.943-0.154-1.816-0.458-2.621-0.278-0.804-0.68-1.498-1.206-2.080-0.499-0.582-1.096-1.026-1.789-1.331-0.694-0.333-1.443-0.499-2.246-0.499-0.805 0-1.554 0.166-2.246 0.499-0.694 0.333-1.304 0.79-1.83 1.373-0.499 0.582-0.902 1.276-1.206 2.080-0.278 0.804-0.416 1.678-0.416 2.621z"></path>
</symbol>
<symbol id="icon-instagram" viewBox="0 0 32 32">
<path fill="#afb1b8" style="fill: var(--color5, #afb1b8)" d="M31.969 9.408c-0.075-1.7-0.35-2.869-0.744-3.882-0.406-1.075-1.031-2.038-1.85-2.838-0.8-0.813-1.769-1.444-2.832-1.844-1.019-0.394-2.182-0.669-3.882-0.744-1.713-0.081-2.257-0.1-6.601-0.1s-4.888 0.019-6.595 0.094c-1.7 0.075-2.869 0.35-3.882 0.744-1.075 0.406-2.038 1.031-2.838 1.85-0.813 0.8-1.444 1.769-1.844 2.832-0.394 1.019-0.669 2.182-0.744 3.882-0.081 1.713-0.1 2.257-0.1 6.601s0.019 4.888 0.094 6.595c0.075 1.7 0.35 2.869 0.744 3.882 0.406 1.075 1.038 2.038 1.85 2.838 0.8 0.813 1.769 1.444 2.832 1.844 1.019 0.394 2.182 0.669 3.882 0.744 1.706 0.075 2.25 0.094 6.595 0.094s4.888-0.019 6.595-0.094c1.7-0.075 2.869-0.35 3.882-0.744 2.151-0.832 3.851-2.532 4.682-4.682 0.394-1.019 0.669-2.182 0.744-3.882 0.075-1.707 0.094-2.251 0.094-6.595s-0.006-4.888-0.081-6.595zM29.087 22.473c-0.069 1.563-0.331 2.407-0.55 2.969-0.538 1.394-1.644 2.5-3.038 3.038-0.563 0.219-1.413 0.481-2.969 0.55-1.688 0.075-2.194 0.094-6.464 0.094s-4.782-0.019-6.464-0.094c-1.563-0.069-2.407-0.331-2.969-0.55-0.694-0.256-1.325-0.663-1.838-1.194-0.531-0.519-0.938-1.144-1.194-1.838-0.219-0.563-0.481-1.413-0.55-2.969-0.075-1.688-0.094-2.194-0.094-6.464s0.019-4.782 0.094-6.464c0.069-1.563 0.331-2.407 0.55-2.969 0.256-0.694 0.663-1.325 1.2-1.838 0.519-0.531 1.144-0.938 1.838-1.194 0.563-0.219 1.413-0.481 2.969-0.55 1.688-0.075 2.194-0.094 6.464-0.094 4.276 0 4.782 0.019 6.464 0.094 1.563 0.069 2.407 0.331 2.969 0.55 0.694 0.256 1.325 0.662 1.838 1.194 0.531 0.519 0.938 1.144 1.194 1.838 0.219 0.563 0.481 1.413 0.55 2.969 0.075 1.688 0.094 2.194 0.094 6.464s-0.019 4.77-0.094 6.458z"></path>
<path fill="#afb1b8" style="fill: var(--color5, #afb1b8)" d="M16.059 7.783c-4.538 0-8.22 3.682-8.22 8.22s3.682 8.22 8.22 8.22c4.538 0 8.22-3.682 8.22-8.22s-3.682-8.22-8.22-8.22zM16.059 21.335c-2.944 0-5.332-2.388-5.332-5.332s2.388-5.332 5.332-5.332c2.944 0 5.332 2.388 5.332 5.332s-2.388 5.332-5.332 5.332z"></path>
<path fill="#afb1b8" style="fill: var(--color5, #afb1b8)" d="M26.524 7.458c0 1.060-0.859 1.919-1.919 1.919s-1.919-0.859-1.919-1.919c0-1.060 0.859-1.919 1.919-1.919s1.919 0.859 1.919 1.919z"></path>
</symbol>
</defs>
</svg>
